<svg fill="none" height="517" viewBox="0 0 748 517" width="748" xmlns="http://www.w3.org/2000/svg" xmlns:xlink="http://www.w3.org/1999/xlink"><linearGradient id="a" gradientUnits="userSpaceOnUse" x1="250.148" x2="717.454" y1="400" y2="400"><stop offset="0" stop-color="#00b2ff"/><stop offset="1" stop-color="#1064e3"/></linearGradient><g stroke-linecap="round" stroke-linejoin="round" stroke-width="32"><path d="m283 16v410c0 13.255 10.745 24 24 24h330" opacity=".6" stroke="url(#a)"/><path d="m586.106 398.713 50.787 50.787-50.787 50.787" opacity=".6" stroke="#1a21d2"/><path d="m689 268.5-100.977-100.51c-4.498-4.477-10.586-6.99-16.932-6.99h-176.091c-13.255 0-24 10.745-24 24v93c0 13.255-10.745 24-24 24h-331" opacity=".6" stroke="#00ba5d"/><path d="m617 268.823h71.823v-71.823" opacity=".6" stroke="#04ba00"/></g><circle cx="428" cy="450" fill="#0080ff" opacity=".6" r="16"/><circle cx="637" cy="450" fill="#0080ff" opacity=".6" r="16"/><circle cx="283" cy="302" fill="#0080ff" opacity=".6" r="16"/><circle cx="365" cy="294" fill="#00ba5d" opacity=".6" r="16"/><circle cx="376" cy="170" fill="#00ba5d" opacity=".6" r="16"/><circle cx="584" cy="165" fill="#00ba5d" opacity=".6" r="16"/><circle cx="689" cy="268" fill="#a2b918" opacity=".6" r="16"/><circle cx="289" cy="442" fill="#0080ff" opacity=".6" r="16"/></svg>