<svg fill="none" height="419" viewBox="0 0 589 419" width="589" xmlns="http://www.w3.org/2000/svg"><g stroke-linecap="round" stroke-linejoin="round" stroke-width="32"><path d="m68 261v118c0 13.255 10.7452 24 24 24h96c13.255 0 24-10.745 24-24v-184c0-13.255 10.745-24 24-24h337" opacity=".6" stroke="#00ba5d"/><path d="m16.7131 311.893 50.7868-50.786 50.7871 50.786" opacity=".6" stroke="#04ba00"/><path d="m564 319h-157c-13.255 0-24-10.745-24-24v-203.9995c0-13.2548-10.745-24-24-24h-119" opacity=".6" stroke="#7e41ff"/><path d="m290.893 118.287-50.786-50.7872 50.786-50.7868" opacity=".6" stroke="#9644c8"/></g><circle cx="240" cy="67" fill="#7e41ff" opacity=".6" r="16"/><circle cx="377" cy="75" fill="#7e41ff" opacity=".6" r="16"/><circle cx="383" cy="171" fill="#7e41ff" opacity=".6" r="16"/><circle cx="392" cy="314" fill="#7e41ff" opacity=".6" r="16"/><circle cx="68" cy="261" fill="#00ba5d" opacity=".6" r="16"/><circle cx="75" cy="396" fill="#00ba5d" opacity=".6" r="16"/><circle cx="205" cy="396" fill="#00ba5d" opacity=".6" r="16"/><circle cx="220" cy="177" fill="#00ba5d" opacity=".6" r="16"/></svg>