<svg fill="none" height="72" viewBox="0 0 72 72" width="72" xmlns="http://www.w3.org/2000/svg" xmlns:xlink="http://www.w3.org/1999/xlink"><radialGradient id="a" cx="0" cy="0" gradientTransform="matrix(65.37933034 -72.00000268 71.66633824 65.07634761 3 72)" gradientUnits="userSpaceOnUse" r="1"><stop offset="0" stop-color="#ff705c"/><stop offset="1" stop-color="#dc4200"/></radialGradient><path d="m26.925 11.2662c.3555 0 .6016-.2187.6836-.6016.5742-3.66422.6015-3.69157 4.3202-4.34785.4101-.10938.6562-.32814.6562-.68363 0-.38283-.2461-.6016-.6015-.68363-3.8007-.76567-3.746-.76567-4.3749-4.347895-.082-.382833-.3281-.601595-.6836-.601595-.3554 0-.6015.246107-.6562.601595-.6836 3.664265-.6015 3.691605-4.3749 4.347895-.3828.08203-.6288.32814-.6288.68363 0 .32814.2187.57425.6015.68363 3.8007.73832 3.7733.71098 4.4022 4.37525.0547.3281.3008.5742.6562.5742zm18.9487 6.8363c.5468 0 .9296-.3828.9843-.9297.7109-5.7972.9297-5.9886 6.8904-6.9183.6289-.0821.9844-.43756.9844-.98447 0-.49221-.3555-.87504-.8477-.92973-6.0701-1.23054-6.3162-1.1485-7.0271-6.94569-.0547-.546908-.4375-.902396-.9843-.902396-.4922 0-.875.355488-.9297.875046-.7656 5.96126-.9297 6.12533-6.9998 6.97304-.4922.02734-.875.43752-.875.92973 0 .51956.3555.87507.8477.98447 6.1248 1.2305 6.2342 1.1485 7.0271 6.973.0547.4922.4648.875.9297.875zm-6.9725 2.7619-3.8006-3.801c-1.3398-1.3399-3.3359-1.3125-4.6483 0-.0547.0821-.1367.1368-.1914.2461l7.6286 7.6294c.0547-1.504.3828-2.8713 1.0117-4.0745zm-14.4097 42.057c8.4216 8.4223 19.3588 7.6293 27.0421-.0547 5.2499-5.2776 6.8631-10.9108 5.3866-17.6377-.793-5.305-4.1014-11.5397-6.0428-15.2039-1.3398-2.6252-3.0351-6.016-3.9921-7.2465-1.0663-1.422-2.7616-1.6954-4.1287-.6837-1.5586 1.1485-1.75 2.8713-.957 5.0863l3.1171 8.3129c.2734.6836.2187 1.0665-.0274 1.3126-.2734.3008-.6562.3555-1.2031-.1914l-19.5228-19.5519c-1.3398-1.3125-3.3358-1.3125-4.6483 0-1.3125 1.3126-1.3125 3.3361 0 4.6487l14.5738 14.5477c-.6016.3008-1.1758.6289-1.7773 1.0118l-16.7339-16.7353c-1.3124-1.3126-3.3085-1.3126-4.6209 0-1.33982 1.3399-1.33982 3.3361 0 4.6487l16.5151 16.5165c-.4375.5469-.875 1.0664-1.2578 1.6134l-15.2026-15.204c-1.31249-1.2852-3.33587-1.3126-4.64832 0-1.31246 1.3126-1.28512 3.3361 0 4.6487l16.48772 16.4618c-.3007.711-.4921 1.4493-.6835 2.133l-11.4567-11.485c-1.33981-1.3126-3.33584-1.34-4.6483-.0274-1.31245 1.3399-1.31245 3.3361 0 4.676zm37.9793-.0547c5.2498-5.2776 6.8631-10.9108 5.3865-17.6377-.8202-5.305-4.1014-11.5397-6.0427-15.2039-1.3398-2.6252-3.0624-6.016-3.9921-7.2465-1.0664-1.422-2.7616-1.6954-4.1288-.6837-.6835.4923-1.121 1.0939-1.3124 1.7775.7929 1.5313 1.5859 3.09 2.4061 4.6213 1.8867 3.5276 5.3866 10.2545 6.1795 16.1337 1.7226 8.1489-.4375 15.0946-6.5076 21.1652-1.1484 1.1485-2.3515 2.133-3.5819 3.008 4.1561-.4922 8.2029-2.5431 11.5934-5.9339zm-51.7328 9.1333c.4649 0 .793-.3281.8477-.793.8476-5.0589.8476-5.1409 6.0974-6.0707.5195-.1093.8203-.3828.8203-.875s-.3008-.7657-.7656-.8477c-5.3318-1.0665-5.2772-1.1212-6.1521-6.0706-.0547-.4923-.3828-.8204-.8477-.8204-.4648 0-.76556.3281-.84759.793-.87497 5.0862-.79294 5.1683-6.09747 6.098-.46483.082-.79294.3555-.79294.8477s.30077.7657.79294.875c5.30453 1.0392 5.24984 1.0665 6.09747 6.098.08203.4376.38279.7657.84759.7657z" fill="url(#a)"/></svg>