<svg fill="none" height="800" viewBox="0 0 756 800" width="756" xmlns="http://www.w3.org/2000/svg" xmlns:xlink="http://www.w3.org/1999/xlink"><linearGradient id="a" gradientUnits="userSpaceOnUse" x1="720" x2="720" y1="0" y2="792"><stop offset="0" stop-color="#e1e7f1"/><stop offset=".304913" stop-color="#fff" stop-opacity="0"/></linearGradient><clipPath id="b"><path d="m0 0h756v800h-756z"/></clipPath><clipPath id="c"><path d="m72 0h36v288h-36z"/></clipPath><clipPath id="d"><path d="m0 144h36v108h-36z"/></clipPath><clipPath id="e"><path d="m324 144h36v180h-36z"/></clipPath><clipPath id="f"><path d="m36 432h36v36h-36z"/></clipPath><clipPath id="g"><path d="m72 288h36v72h-36z"/></clipPath><clipPath id="h"><path d="m36 0h36v72h-36z"/></clipPath><clipPath id="i"><path d="m360 0h36v504h-36z"/></clipPath><clipPath id="j"><path d="m108 0h36v108h-36z"/></clipPath><clipPath id="k"><path d="m396 0h36v252h-36z"/></clipPath><clipPath id="l"><path d="m108 144h36v36h-36z"/></clipPath><clipPath id="m"><path d="m144 0h36v360h-36z"/></clipPath><clipPath id="n"><path d="m216 0h36v216h-36z"/></clipPath><clipPath id="o"><path d="m108 288h36v360h-36z"/></clipPath><clipPath id="p"><path d="m180 180h36v108h-36z"/></clipPath><clipPath id="q"><path d="m180 324h36v180h-36z"/></clipPath><clipPath id="r"><path d="m288 0h36v396h-36z"/></clipPath><clipPath id="s"><path d="m108 108h36v36h-36z"/></clipPath><clipPath id="t"><path d="m108 540h36v36h-36z"/></clipPath><clipPath id="u"><path d="m180 288h36v36h-36z"/></clipPath><clipPath id="v"><path d="m216 576h36v108h-36z"/></clipPath><clipPath id="w"><path d="m288 468h36v144h-36z"/></clipPath><clipPath id="x"><path d="m252 288h36v108h-36z"/></clipPath><clipPath id="y"><path d="m396 396h36v252h-36z"/></clipPath><clipPath id="z"><path d="m252 468h36v72h-36z"/></clipPath><clipPath id="A"><path d="m108 648h36v36h-36z"/></clipPath><clipPath id="B"><path d="m216 684h36v36h-36z"/></clipPath><clipPath id="C"><path d="m252 540h36v36h-36z"/></clipPath><clipPath id="D"><path d="m288 612h36v36h-36z"/></clipPath><clipPath id="E"><path d="m360 504h36v36h-36z"/></clipPath><clipPath id="F"><path d="m396 648h36v36h-36z"/></clipPath><clipPath id="G"><path d="m144 360h36v36h-36z"/></clipPath><clipPath id="H"><path d="m0 252h36v36h-36z"/></clipPath><clipPath id="I"><path d="m324 324h36v36h-36z"/></clipPath><clipPath id="J"><path d="m108 180h36v36h-36z"/></clipPath><clipPath id="K"><path d="m396 252h36v36h-36z"/></clipPath><clipPath id="L"><path d="m36 468h36v36h-36z"/></clipPath><clipPath id="M"><path d="m72 216h36v36h-36z"/></clipPath><clipPath id="N"><path d="m0 72h72v72h-72z"/></clipPath><clipPath id="O"><path d="m324 72h72v72h-72z"/></clipPath><clipPath id="P"><path d="m36 360h72v72h-72z"/></clipPath><clipPath id="Q"><path d="m0 0h72v72h-72z" transform="matrix(-1 0 0 1 144 216)"/></clipPath><clipPath id="R"><path d="m72 216h36v36h-36z"/></clipPath><clipPath id="S"><path d="m0 0h72v72h-72z" transform="matrix(-1 0 0 1 216 108)"/></clipPath><clipPath id="T"><path d="m0 0h72v72h-72z" transform="matrix(-1 0 0 1 288 216)"/></clipPath><clipPath id="U"><path d="m144 108h36v36h-36z"/></clipPath><clipPath id="V"><path d="m0 0h72v72h-72z" transform="matrix(-1 0 0 1 432 324)"/></clipPath><clipPath id="W"><path d="m0 0h72v72h-72z" transform="matrix(-1 0 0 1 324 396)"/></clipPath><clipPath id="X"><path d="m252 396h72v72h-72z"/></clipPath><clipPath id="Y"><path d="m0 0h72v72h-72z" transform="matrix(-1 0 0 1 252 504)"/></clipPath><clipPath id="Z"><path d="m360 180h36v36h-36z"/></clipPath><clipPath id="aa"><path d="m360 324h36v36h-36z"/></clipPath><clipPath id="ab"><path d="m288 108h36v36h-36z"/></clipPath><clipPath id="ac"><path d="m216 36h36v36h-36z"/></clipPath><clipPath id="ad"><path d="m504 0h72v288h-72z"/></clipPath><clipPath id="ae"><path d="m432 144h36v108h-36z"/></clipPath><clipPath id="af"><path d="m468 432h36v36h-36z"/></clipPath><clipPath id="ag"><path d="m504 288h36v72h-36z"/></clipPath><clipPath id="ah"><path d="m468 0h36v72h-36z"/></clipPath><clipPath id="ai"><path d="m540 0h36v108h-36z"/></clipPath><clipPath id="aj"><path d="m540 144h36v36h-36z"/></clipPath><clipPath id="ak"><path d="m576 0h36v360h-36z"/></clipPath><clipPath id="al"><path d="m648 0h36v216h-36z"/></clipPath><clipPath id="am"><path d="m648 36h36v36h-36z"/></clipPath><clipPath id="an"><path d="m540 288h36v324h-36z"/></clipPath><clipPath id="ao"><path d="m612 180h36v108h-36z"/></clipPath><clipPath id="ap"><path d="m612 324h36v180h-36z"/></clipPath><clipPath id="aq"><path d="m720 0h36v396h-36z"/></clipPath><clipPath id="ar"><path d="m540 108h36v36h-36z"/></clipPath><clipPath id="as"><path d="m540 540h36v36h-36z"/></clipPath><clipPath id="at"><path d="m612 288h36v36h-36z"/></clipPath><clipPath id="au"><path d="m648 576h36v108h-36z"/></clipPath><clipPath id="av"><path d="m720 468h36v288h-36z"/></clipPath><clipPath id="aw"><path d="m684 288h36v108h-36z"/></clipPath><clipPath id="ax"><path d="m684 468h36v72h-36z"/></clipPath><clipPath id="ay"><path d="m540 612h36v36h-36z"/></clipPath><clipPath id="az"><path d="m648 684h36v36h-36z"/></clipPath><clipPath id="aA"><path d="m684 540h36v36h-36z"/></clipPath><clipPath id="aB"><path d="m720 756h36v36h-36z"/></clipPath><clipPath id="aC"><path d="m576 360h36v36h-36z"/></clipPath><clipPath id="aD"><path d="m432 252h36v36h-36z"/></clipPath><clipPath id="aE"><path d="m540 180h36v36h-36z"/></clipPath><clipPath id="aF"><path d="m468 468h36v36h-36z"/></clipPath><clipPath id="aG"><path d="m504 216h36v36h-36z"/></clipPath><clipPath id="aH"><path d="m432 72h72v72h-72z"/></clipPath><clipPath id="aI"><path d="m468 360h72v72h-72z"/></clipPath><clipPath id="aJ"><path d="m0 0h72v72h-72z" transform="matrix(-1 0 0 1 576 216)"/></clipPath><clipPath id="aK"><path d="m0 0h72v72h-72z" transform="matrix(-1 0 0 1 648 108)"/></clipPath><clipPath id="aL"><path d="m0 0h72v72h-72z" transform="matrix(-1 0 0 1 720 216)"/></clipPath><clipPath id="aM"><path d="m0 0h72v72h-72z" transform="matrix(-1 0 0 1 756 396)"/></clipPath><clipPath id="aN"><path d="m684 396h72v72h-72z"/></clipPath><clipPath id="aO"><path d="m0 0h72v72h-72z" transform="matrix(-1 0 0 1 684 504)"/></clipPath><clipPath id="aP"><path d="m720 108h36v36h-36z"/></clipPath><clipPath id="aQ"><path d="m504 216h36v36h-36z"/></clipPath><clipPath id="aR"><path d="m576 108h36v36h-36z"/></clipPath><clipPath id="aS"><path d="m360 0h36v80h-36z"/></clipPath><g clip-path="url(#b)" opacity=".6"><g clip-path="url(#c)"><path d="m96 0h288v12h-288z" fill="#00ba5d" transform="matrix(0 1 -1 0 96 -96)"/></g><g clip-path="url(#d)"><path d="m24 144h108v12h-108z" fill="#fea008" transform="matrix(0 1 -1 0 168 120)"/></g><g clip-path="url(#e)"><path d="m348 144h180v12h-180z" fill="#0080ff" transform="matrix(0 1 -1 0 492 -204)"/></g><g clip-path="url(#f)"><path d="m60 432h36v12h-36z" fill="#00ba5d" transform="matrix(0 1 -1 0 492 372)"/></g><g clip-path="url(#g)"><path d="m96 288h72v12h-72z" fill="#00ba5d" transform="matrix(0 1 -1 0 384 192)"/></g><g clip-path="url(#h)"><path d="m60 0h72v12h-72z" fill="#fea008" transform="matrix(0 1 -1 0 60 -60)"/></g><g clip-path="url(#i)"><path d="m384 0h504v12h-504z" fill="#7e41ff" transform="matrix(0 1 -1 0 384 -384)"/></g><g clip-path="url(#j)"><path d="m132 0h108v12h-108z" fill="#7e41ff" transform="matrix(0 1 -1 0 132 -132)"/></g><g clip-path="url(#k)"><path d="m420 0h252v12h-252z" fill="#00ba5d" transform="matrix(0 1 -1 0 420 -420)"/></g><g clip-path="url(#l)"><path d="m132 144h36v12h-36z" fill="#7e41ff" transform="matrix(0 1 -1 0 276 12)"/></g><g clip-path="url(#m)"><path d="m168 0h360v12h-360z" fill="#0080ff" transform="matrix(0 1 -1 0 168 -168)"/></g><g clip-path="url(#n)"><path d="m240 0h216v12h-216z" fill="#f0483e" transform="matrix(0 1 -1 0 240 -240)"/></g><g clip-path="url(#o)"><path d="m132 288h360v12h-360z" fill="#f0483e" transform="matrix(0 1 -1 0 420 156)"/></g><g clip-path="url(#p)"><path d="m204 180h108v12h-108z" fill="#00ba5d" transform="matrix(0 1 -1 0 384 -24)"/></g><g clip-path="url(#q)"><path d="m204 324h180v12h-180z" fill="#00ba5d" transform="matrix(0 1 -1 0 528 120)"/></g><g clip-path="url(#r)"><path d="m312 0h396v12h-396z" fill="#fea008" transform="matrix(0 1 -1 0 312 -312)"/></g><g clip-path="url(#s)"><path d="m132 108h36v12h-36z" fill="#7e41ff" transform="matrix(0 1 -1 0 240 -24)"/></g><g clip-path="url(#t)"><path d="m132 522h72v12h-72z" fill="#f0483e" transform="matrix(0 1 -1 0 654 390)"/><circle cx="126" cy="558" fill="#fff" r="8.5" stroke="#00122e" stroke-width="3"/></g><g clip-path="url(#u)"><path d="m204 270h72v12h-72z" fill="#00ba5d" transform="matrix(0 1 -1 0 474 66)"/><circle cx="198" cy="306" fill="#fff" r="8.5" stroke="#00122e" stroke-width="3"/></g><g clip-path="url(#v)"><path d="m240 576h108v12h-108z" fill="#00ba5d" transform="matrix(0 1 -1 0 816 336)"/></g><g clip-path="url(#w)"><path d="m312 468h144v12h-144z" fill="#f0483e" transform="matrix(0 1 -1 0 780 156)"/></g><g clip-path="url(#x)"><path d="m276 288h108v12h-108z" fill="#f0483e" transform="matrix(0 1 -1 0 564 12)"/></g><g clip-path="url(#y)"><path d="m420 396h252v12h-252z" fill="#00ba5d" transform="matrix(0 1 -1 0 816 -24)"/></g><g clip-path="url(#z)"><path d="m276 468h72v12h-72z" fill="#fea008" transform="matrix(0 1 -1 0 744 192)"/></g><g clip-path="url(#A)"><path d="m132 630h36v12h-36z" fill="#f0483e" transform="matrix(0 1 -1 0 762 498)"/><circle cx="126" cy="666" fill="#fff" r="8.5" stroke="#00122e" stroke-width="3"/></g><g clip-path="url(#B)"><path d="m240 666h36v12h-36z" fill="#00ba5d" transform="matrix(0 1 -1 0 906 426)"/><circle cx="234" cy="702" fill="#fff" r="8.5" stroke="#00122e" stroke-width="3"/></g><g clip-path="url(#C)"><path d="m276 522h36v12h-36z" fill="#fea008" transform="matrix(0 1 -1 0 798 246)"/><circle cx="270" cy="558" fill="#fff" r="8.5" stroke="#00122e" stroke-width="3"/></g><g clip-path="url(#D)"><path d="m312 594h36v12h-36z" fill="#f0483e" transform="matrix(0 1 -1 0 906 282)"/><circle cx="306" cy="630" fill="#fff" r="8.5" stroke="#00122e" stroke-width="3"/></g><g clip-path="url(#E)"><path d="m384 486h36v12h-36z" fill="#7e41ff" transform="matrix(0 1 -1 0 870 102)"/><circle cx="378" cy="522" fill="#fff" r="8.5" stroke="#00122e" stroke-width="3"/></g><g clip-path="url(#F)"><path d="m420 630h36v12h-36z" fill="#d0daec" transform="matrix(0 1 -1 0 1050 210)"/><circle cx="414" cy="666" fill="#fff" r="8.5" stroke="#00122e" stroke-width="3"/></g><g clip-path="url(#G)"><path d="m168 342h36v12h-36z" fill="#0080ff" transform="matrix(0 1 -1 0 510 174)"/><circle cx="162" cy="378" fill="#fff" r="8.5" stroke="#00122e" stroke-width="3"/></g><g clip-path="url(#H)"><path d="m24 234h36v12h-36z" fill="#fea008" transform="matrix(0 1 -1 0 258 210)"/><circle cx="18" cy="270" fill="#fff" r="8.5" stroke="#00122e" stroke-width="3"/></g><g clip-path="url(#I)"><path d="m348 306h36v12h-36z" fill="#0080ff" transform="matrix(0 1 -1 0 654 -42)"/><circle cx="342" cy="342" fill="#fff" r="8.5" stroke="#00122e" stroke-width="3"/></g><g clip-path="url(#J)"><path d="m132 162h36v12h-36z" fill="#7e41ff" transform="matrix(0 1 -1 0 294 30)"/><circle cx="126" cy="198" fill="#fff" r="8.5" stroke="#00122e" stroke-width="3"/></g><g clip-path="url(#K)"><path d="m420 234h36v12h-36z" fill="#00ba5d" transform="matrix(0 1 -1 0 654 -186)"/><circle cx="414" cy="270" fill="#fff" r="8.5" stroke="#00122e" stroke-width="3"/></g><g clip-path="url(#L)"><path d="m60 450h36v12h-36z" fill="#00ba5d" transform="matrix(0 1 -1 0 510 390)"/><circle cx="54" cy="486" fill="#fff" r="8.5" stroke="#00122e" stroke-width="3"/></g><g clip-path="url(#M)"><path d="m96 216h36v12h-36z" fill="#d0daec" transform="matrix(0 1 -1 0 312 120)"/></g><g clip-path="url(#N)"><path d="m54 72v18l-36 36v18" stroke="#fea008" stroke-linejoin="round" stroke-width="12"/><g fill="#fff" stroke="#00122e" stroke-width="3"><circle cx="54" cy="90" r="8.5"/><circle cx="18" cy="126" r="8.5"/></g></g><g clip-path="url(#O)"><path d="m378 72v18l-36 36v18" stroke="#0080ff" stroke-linejoin="round" stroke-width="12"/><g fill="#fff" stroke="#00122e" stroke-width="3"><circle cx="378" cy="90" r="8.5"/><circle cx="342" cy="126" r="8.5"/></g></g><g clip-path="url(#P)"><path d="m90 360v18l-36 36v18" stroke="#00ba5d" stroke-linejoin="round" stroke-width="12"/><g fill="#fff" stroke="#00122e" stroke-width="3"><circle cx="90" cy="378" r="8.5"/><circle cx="54" cy="414" r="8.5"/></g></g><g clip-path="url(#Q)"><path d="m90 216v18l36 36v18" stroke="#f0483e" stroke-linejoin="round" stroke-width="12"/><g fill="#fff" stroke="#00122e" stroke-width="3"><circle r="8.5" transform="matrix(-1 0 0 1 90 234)"/><circle r="8.5" transform="matrix(-1 0 0 1 126 270)"/></g></g><g clip-path="url(#R)"><path d="m96 198h72v12h-72z" fill="#00ba5d" transform="matrix(0 1 -1 0 294 102)"/><circle cx="90" cy="234" fill="#fff" r="8.5" stroke="#00122e" stroke-width="3"/></g><g clip-path="url(#S)"><path d="m162 108v18l36 36v18" stroke="#00ba5d" stroke-linejoin="round" stroke-width="12"/><g fill="#fff" stroke="#00122e" stroke-width="3"><circle r="8.5" transform="matrix(-1 0 0 1 162 126)"/><circle r="8.5" transform="matrix(-1 0 0 1 198 162)"/></g></g><g clip-path="url(#T)"><path d="m234 216v18l36 36v18" stroke="#f0483e" stroke-linejoin="round" stroke-width="12"/><g fill="#fff" stroke="#00122e" stroke-width="3"><circle r="8.5" transform="matrix(-1 0 0 1 234 234)"/><circle r="8.5" transform="matrix(-1 0 0 1 270 270)"/></g></g><g clip-path="url(#U)"><path d="m168 90h72v12h-72z" fill="#0080ff" transform="matrix(0 1 -1 0 258 -78)"/><circle cx="162" cy="126" fill="#fff" r="8.5" stroke="#00122e" stroke-width="3"/></g><g clip-path="url(#V)"><path d="m378 324v18l36 36v18" stroke="#00ba5d" stroke-linejoin="round" stroke-width="12"/><g fill="#fff" stroke="#00122e" stroke-width="3"><circle r="8.5" transform="matrix(-1 0 0 1 378 342)"/><circle r="8.5" transform="matrix(-1 0 0 1 414 378)"/></g></g><g clip-path="url(#W)"><path d="m270 396v18l36 36v18" stroke="#f0483e" stroke-linejoin="round" stroke-width="12"/><g fill="#fff" stroke="#00122e" stroke-width="3"><circle r="8.5" transform="matrix(-1 0 0 1 270 414)"/><circle r="8.5" transform="matrix(-1 0 0 1 306 450)"/></g></g><g clip-path="url(#X)"><path d="m306 396v18l-36 36v18" stroke="#fea008" stroke-linejoin="round" stroke-width="12"/><g fill="#fff" stroke="#00122e" stroke-width="3"><circle cx="306" cy="414" r="8.5"/><circle cx="270" cy="450" r="8.5"/></g></g><g clip-path="url(#Y)"><path d="m198 504v18l36 36v18" stroke="#00ba5d" stroke-linejoin="round" stroke-width="12"/><g fill="#fff" stroke="#00122e" stroke-width="3"><circle r="8.5" transform="matrix(-1 0 0 1 198 522)"/><circle r="8.5" transform="matrix(-1 0 0 1 234 558)"/></g></g><g clip-path="url(#Z)"><path d="m384 162h72v12h-72z" fill="#7e41ff" transform="matrix(0 1 -1 0 546 -222)"/><circle cx="378" cy="198" fill="#fff" r="8.5" stroke="#00122e" stroke-width="3"/></g><g clip-path="url(#aa)"><path d="m384 306h72v12h-72z" fill="#7e41ff" transform="matrix(0 1 -1 0 690 -78)"/><circle cx="378" cy="342" fill="#fff" r="8.5" stroke="#00122e" stroke-width="3"/></g><g clip-path="url(#ab)"><path d="m312 90h72v12h-72z" fill="#fea008" transform="matrix(0 1 -1 0 402 -222)"/><circle cx="306" cy="126" fill="#fff" r="8.5" stroke="#00122e" stroke-width="3"/></g><g clip-path="url(#ac)"><path d="m240 18h72v12h-72z" fill="#f0483e" transform="matrix(0 1 -1 0 258 -222)"/><circle cx="234" cy="54" fill="#fff" r="8.5" stroke="#00122e" stroke-width="3"/></g><g clip-path="url(#ad)"><path d="m528 0h288v12h-288z" fill="#0080ff" transform="matrix(0 1 -1 0 528 -528)"/></g><g clip-path="url(#ae)"><path d="m456 144h108v12h-108z" fill="#fea008" transform="matrix(0 1 -1 0 600 -312)"/></g><g clip-path="url(#af)"><path d="m492 432h36v12h-36z" fill="#0080ff" transform="matrix(0 1 -1 0 924 -60)"/></g><g clip-path="url(#ag)"><path d="m528 288h72v12h-72z" fill="#0080ff" transform="matrix(0 1 -1 0 816 -240)"/></g><g clip-path="url(#ah)"><path d="m492 0h72v12h-72z" fill="#fea008" transform="matrix(0 1 -1 0 492 -492)"/></g><g clip-path="url(#ai)"><path d="m564 0h108v12h-108z" fill="#f0483e" transform="matrix(0 1 -1 0 564 -564)"/></g><g clip-path="url(#aj)"><path d="m564 144h36v12h-36z" fill="#f0483e" transform="matrix(0 1 -1 0 708 -420)"/></g><g clip-path="url(#ak)"><path d="m600 0h360v12h-360z" fill="#00ba5d" transform="matrix(0 1 -1 0 600 -600)"/></g><g clip-path="url(#al)"><path d="m672 0h216v12h-216z" fill="#0080ff" transform="matrix(0 1 -1 0 672 -672)"/></g><g clip-path="url(#am)"><path d="m672 18h72v12h-72z" fill="#d0daec" transform="matrix(0 1 -1 0 690 -654)"/><circle cx="666" cy="54" fill="#fff" r="8.5" stroke="#00122e" stroke-width="3"/></g><g clip-path="url(#an)"><path d="m564 288h324v12h-324z" fill="#7e41ff" transform="matrix(0 1 -1 0 852 -276)"/></g><g clip-path="url(#ao)"><path d="m636 180h108v12h-108z" fill="#fea008" transform="matrix(0 1 -1 0 816 -456)"/></g><g clip-path="url(#ap)"><path d="m636 324h180v12h-180z" fill="#fea008" transform="matrix(0 1 -1 0 960 -312)"/></g><g clip-path="url(#aq)"><path d="m744 0h396v12h-396z" fill="#00ba5d" transform="matrix(0 1 -1 0 744 -744)"/></g><g clip-path="url(#ar)"><path d="m564 108h36v12h-36z" fill="#f0483e" transform="matrix(0 1 -1 0 672 -456)"/></g><g clip-path="url(#as)"><path d="m564 522h72v12h-72z" fill="#7e41ff" transform="matrix(0 1 -1 0 1086 -42)"/><circle cx="558" cy="558" fill="#fff" r="8.5" stroke="#00122e" stroke-width="3"/></g><g clip-path="url(#at)"><path d="m636 270h72v12h-72z" fill="#fea008" transform="matrix(0 1 -1 0 906 -366)"/><circle cx="630" cy="306" fill="#fff" r="8.5" stroke="#00122e" stroke-width="3"/></g><g clip-path="url(#au)"><path d="m672 576h108v12h-108z" fill="#fea008" transform="matrix(0 1 -1 0 1248 -96)"/></g><g clip-path="url(#av)"><path d="m744 468h288v12h-288z" fill="#0080ff" transform="matrix(0 1 -1 0 1212 -276)"/></g><g clip-path="url(#aw)"><path d="m708 288h108v12h-108z" fill="#0080ff" transform="matrix(0 1 -1 0 996 -420)"/></g><g clip-path="url(#ax)"><path d="m708 468h72v12h-72z" fill="#00ba5d" transform="matrix(0 1 -1 0 1176 -240)"/></g><g clip-path="url(#ay)"><path d="m564 594h36v12h-36z" fill="#7e41ff" transform="matrix(0 1 -1 0 1158 30)"/><circle cx="558" cy="630" fill="#fff" r="8.5" stroke="#00122e" stroke-width="3"/></g><g clip-path="url(#az)"><path d="m672 666h36v12h-36z" fill="#fea008" transform="matrix(0 1 -1 0 1338 -6)"/><circle cx="666" cy="702" fill="#fff" r="8.5" stroke="#00122e" stroke-width="3"/></g><g clip-path="url(#aA)"><path d="m708 522h36v12h-36z" fill="#00ba5d" transform="matrix(0 1 -1 0 1230 -186)"/><circle cx="702" cy="558" fill="#fff" r="8.5" stroke="#00122e" stroke-width="3"/></g><g clip-path="url(#aB)"><path d="m744 738h36v12h-36z" fill="#0080ff" transform="matrix(0 1 -1 0 1482 -6)"/><circle cx="738" cy="774" fill="#fff" r="8.5" stroke="#00122e" stroke-width="3"/></g><g clip-path="url(#aC)"><path d="m600 342h36v12h-36z" fill="#00ba5d" transform="matrix(0 1 -1 0 942 -258)"/><circle cx="594" cy="378" fill="#fff" r="8.5" stroke="#00122e" stroke-width="3"/></g><g clip-path="url(#aD)"><path d="m456 234h36v12h-36z" fill="#fea008" transform="matrix(0 1 -1 0 690 -222)"/><circle cx="450" cy="270" fill="#fff" r="8.5" stroke="#00122e" stroke-width="3"/></g><g clip-path="url(#aE)"><path d="m564 162h36v12h-36z" fill="#f0483e" transform="matrix(0 1 -1 0 726 -402)"/><circle cx="558" cy="198" fill="#fff" r="8.5" stroke="#00122e" stroke-width="3"/></g><g clip-path="url(#aF)"><path d="m492 450h36v12h-36z" fill="#0080ff" transform="matrix(0 1 -1 0 942 -42)"/><circle cx="486" cy="486" fill="#fff" r="8.5" stroke="#00122e" stroke-width="3"/></g><g clip-path="url(#aG)"><path d="m528 216h36v12h-36z" fill="#d0daec" transform="matrix(0 1 -1 0 744 -312)"/></g><g clip-path="url(#aH)"><path d="m486 72v18l-36 36v18" stroke="#fea008" stroke-linejoin="round" stroke-width="12"/><g fill="#fff" stroke="#00122e" stroke-width="3"><circle cx="486" cy="90" r="8.5"/><circle cx="450" cy="126" r="8.5"/></g></g><g clip-path="url(#aI)"><path d="m522 360v18l-36 36v18" stroke="#0080ff" stroke-linejoin="round" stroke-width="12"/><g fill="#fff" stroke="#00122e" stroke-width="3"><circle cx="522" cy="378" r="8.5"/><circle cx="486" cy="414" r="8.5"/></g></g><g clip-path="url(#aJ)"><path d="m522 216v18l36 36v18" stroke="#7e41ff" stroke-linejoin="round" stroke-width="12"/><g fill="#fff" stroke="#00122e" stroke-width="3"><circle r="8.5" transform="matrix(-1 0 0 1 522 234)"/><circle r="8.5" transform="matrix(-1 0 0 1 558 270)"/></g></g><g clip-path="url(#aK)"><path d="m594 108v18l36 36v18" stroke="#fea008" stroke-linejoin="round" stroke-width="12"/><g fill="#fff" stroke="#00122e" stroke-width="3"><circle r="8.5" transform="matrix(-1 0 0 1 594 126)"/><circle r="8.5" transform="matrix(-1 0 0 1 630 162)"/></g></g><g clip-path="url(#aL)"><path d="m666 216v18l36 36v18" stroke="#0080ff" stroke-linejoin="round" stroke-width="12"/><g fill="#fff" stroke="#00122e" stroke-width="3"><circle r="8.5" transform="matrix(-1 0 0 1 666 234)"/><circle r="8.5" transform="matrix(-1 0 0 1 702 270)"/></g></g><g clip-path="url(#aM)"><path d="m702 396v18l36 36v18" stroke="#0080ff" stroke-linejoin="round" stroke-width="12"/><g fill="#fff" stroke="#00122e" stroke-width="3"><circle r="8.5" transform="matrix(-1 0 0 1 702 414)"/><circle r="8.5" transform="matrix(-1 0 0 1 738 450)"/></g></g><g clip-path="url(#aN)"><path d="m738 396v18l-36 36v18" stroke="#00ba5d" stroke-linejoin="round" stroke-width="12"/><g fill="#fff" stroke="#00122e" stroke-width="3"><circle cx="738" cy="414" r="8.5"/><circle cx="702" cy="450" r="8.5"/></g></g><g clip-path="url(#aO)"><path d="m630 504v18l36 36v18" stroke="#fea008" stroke-linejoin="round" stroke-width="12"/><g fill="#fff" stroke="#00122e" stroke-width="3"><circle r="8.5" transform="matrix(-1 0 0 1 630 522)"/><circle r="8.5" transform="matrix(-1 0 0 1 666 558)"/></g></g><g clip-path="url(#aP)"><path d="m744 90h72v12h-72z" fill="#00ba5d" transform="matrix(0 1 -1 0 834 -654)"/><circle cx="738" cy="126" fill="#fff" r="8.5" stroke="#00122e" stroke-width="3"/></g><g clip-path="url(#aQ)"><path d="m528 198h72v12h-72z" fill="#0080ff" transform="matrix(0 1 -1 0 726 -330)"/><circle cx="522" cy="234" fill="#fff" r="8.5" stroke="#00122e" stroke-width="3"/></g><g clip-path="url(#aR)"><path d="m600 90h72v12h-72z" fill="#00ba5d" transform="matrix(0 1 -1 0 690 -510)"/><circle cx="594" cy="126" fill="#fff" r="8.5" stroke="#00122e" stroke-width="3"/></g><g clip-path="url(#aS)"><path d="m384 0h80v12h-80z" fill="#0080ff" transform="matrix(0 1 -1 0 384 -384)"/></g><path d="m0 0h1440v800h-1440z" fill="url(#a)"/></g></svg>