<svg width="756" height="800" viewBox="0 0 756 800" fill="none" xmlns="http://www.w3.org/2000/svg">
<g opacity="0.6" clip-path="url(#clip0)">
<g clip-path="url(#clip1)">
<rect x="96" width="288" height="12" transform="rotate(90 96 0)" fill="#00BA5D"/>
</g>
<g clip-path="url(#clip2)">
<rect x="24" y="144" width="108" height="12" transform="rotate(90 24 144)" fill="#FEA008"/>
</g>
<g clip-path="url(#clip3)">
<rect x="348" y="144" width="180" height="12" transform="rotate(90 348 144)" fill="#0080FF"/>
</g>
<g clip-path="url(#clip4)">
<rect x="60" y="432" width="36" height="12" transform="rotate(90 60 432)" fill="#00BA5D"/>
</g>
<g clip-path="url(#clip5)">
<rect x="96" y="288" width="72" height="12" transform="rotate(90 96 288)" fill="#00BA5D"/>
</g>
<g clip-path="url(#clip6)">
<rect x="60" width="72" height="12" transform="rotate(90 60 0)" fill="#FEA008"/>
</g>
<g clip-path="url(#clip7)">
<rect x="384" width="504" height="12" transform="rotate(90 384 0)" fill="#7E41FF"/>
</g>
<g clip-path="url(#clip8)">
<rect x="132" width="108" height="12" transform="rotate(90 132 0)" fill="#7E41FF"/>
</g>
<g clip-path="url(#clip9)">
<rect x="420" width="252" height="12" transform="rotate(90 420 0)" fill="#00BA5D"/>
</g>
<g clip-path="url(#clip10)">
<rect x="132" y="144" width="36" height="12" transform="rotate(90 132 144)" fill="#7E41FF"/>
</g>
<g clip-path="url(#clip11)">
<rect x="168" width="360" height="12" transform="rotate(90 168 0)" fill="#0080FF"/>
</g>
<g clip-path="url(#clip12)">
<rect x="240" width="216" height="12" transform="rotate(90 240 0)" fill="#F0483E"/>
</g>
<g clip-path="url(#clip13)">
<rect x="132" y="288" width="360" height="12" transform="rotate(90 132 288)" fill="#F0483E"/>
</g>
<g clip-path="url(#clip14)">
<rect x="204" y="180" width="108" height="12" transform="rotate(90 204 180)" fill="#00BA5D"/>
</g>
<g clip-path="url(#clip15)">
<rect x="204" y="324" width="180" height="12" transform="rotate(90 204 324)" fill="#00BA5D"/>
</g>
<g clip-path="url(#clip16)">
<rect x="312" width="396" height="12" transform="rotate(90 312 0)" fill="#FEA008"/>
</g>
<g clip-path="url(#clip17)">
<rect x="132" y="108" width="36" height="12" transform="rotate(90 132 108)" fill="#7E41FF"/>
</g>
<g clip-path="url(#clip18)">
<rect x="132" y="522" width="72" height="12" transform="rotate(90 132 522)" fill="#F0483E"/>
<circle cx="126" cy="558" r="8.5" fill="white" stroke="#00122E" stroke-width="3"/>
</g>
<g clip-path="url(#clip19)">
<rect x="204" y="270" width="72" height="12" transform="rotate(90 204 270)" fill="#00BA5D"/>
<circle cx="198" cy="306" r="8.5" fill="white" stroke="#00122E" stroke-width="3"/>
</g>
<g clip-path="url(#clip20)">
<rect x="240" y="576" width="108" height="12" transform="rotate(90 240 576)" fill="#00BA5D"/>
</g>
<g clip-path="url(#clip21)">
<rect x="312" y="468" width="144" height="12" transform="rotate(90 312 468)" fill="#F0483E"/>
</g>
<g clip-path="url(#clip22)">
<rect x="276" y="288" width="108" height="12" transform="rotate(90 276 288)" fill="#F0483E"/>
</g>
<g clip-path="url(#clip23)">
<rect x="420" y="396" width="252" height="12" transform="rotate(90 420 396)" fill="#00BA5D"/>
</g>
<g clip-path="url(#clip24)">
<rect x="276" y="468" width="72" height="12" transform="rotate(90 276 468)" fill="#FEA008"/>
</g>
<g clip-path="url(#clip25)">
<rect x="132" y="630" width="36" height="12" transform="rotate(90 132 630)" fill="#F0483E"/>
<circle cx="126" cy="666" r="8.5" fill="white" stroke="#00122E" stroke-width="3"/>
</g>
<g clip-path="url(#clip26)">
<rect x="240" y="666" width="36" height="12" transform="rotate(90 240 666)" fill="#00BA5D"/>
<circle cx="234" cy="702" r="8.5" fill="white" stroke="#00122E" stroke-width="3"/>
</g>
<g clip-path="url(#clip27)">
<rect x="276" y="522" width="36" height="12" transform="rotate(90 276 522)" fill="#FEA008"/>
<circle cx="270" cy="558" r="8.5" fill="white" stroke="#00122E" stroke-width="3"/>
</g>
<g clip-path="url(#clip28)">
<rect x="312" y="594" width="36" height="12" transform="rotate(90 312 594)" fill="#F0483E"/>
<circle cx="306" cy="630" r="8.5" fill="white" stroke="#00122E" stroke-width="3"/>
</g>
<g clip-path="url(#clip29)">
<rect x="384" y="486" width="36" height="12" transform="rotate(90 384 486)" fill="#7E41FF"/>
<circle cx="378" cy="522" r="8.5" fill="white" stroke="#00122E" stroke-width="3"/>
</g>
<g clip-path="url(#clip30)">
<rect x="420" y="630" width="36" height="12" transform="rotate(90 420 630)" fill="#D0DAEC"/>
<circle cx="414" cy="666" r="8.5" fill="white" stroke="#00122E" stroke-width="3"/>
</g>
<g clip-path="url(#clip31)">
<rect x="168" y="342" width="36" height="12" transform="rotate(90 168 342)" fill="#0080FF"/>
<circle cx="162" cy="378" r="8.5" fill="white" stroke="#00122E" stroke-width="3"/>
</g>
<g clip-path="url(#clip32)">
<rect x="24" y="234" width="36" height="12" transform="rotate(90 24 234)" fill="#FEA008"/>
<circle cx="18" cy="270" r="8.5" fill="white" stroke="#00122E" stroke-width="3"/>
</g>
<g clip-path="url(#clip33)">
<rect x="348" y="306" width="36" height="12" transform="rotate(90 348 306)" fill="#0080FF"/>
<circle cx="342" cy="342" r="8.5" fill="white" stroke="#00122E" stroke-width="3"/>
</g>
<g clip-path="url(#clip34)">
<rect x="132" y="162" width="36" height="12" transform="rotate(90 132 162)" fill="#7E41FF"/>
<circle cx="126" cy="198" r="8.5" fill="white" stroke="#00122E" stroke-width="3"/>
</g>
<g clip-path="url(#clip35)">
<rect x="420" y="234" width="36" height="12" transform="rotate(90 420 234)" fill="#00BA5D"/>
<circle cx="414" cy="270" r="8.5" fill="white" stroke="#00122E" stroke-width="3"/>
</g>
<g clip-path="url(#clip36)">
<rect x="60" y="450" width="36" height="12" transform="rotate(90 60 450)" fill="#00BA5D"/>
<circle cx="54" cy="486" r="8.5" fill="white" stroke="#00122E" stroke-width="3"/>
</g>
<g clip-path="url(#clip37)">
<rect x="96" y="216" width="36" height="12" transform="rotate(90 96 216)" fill="#D0DAEC"/>
</g>
<g clip-path="url(#clip38)">
<path d="M54 72L54 90L18 126L18 144" stroke="#FEA008" stroke-width="12" stroke-linejoin="round"/>
<circle cx="54" cy="90" r="8.5" fill="white" stroke="#00122E" stroke-width="3"/>
<circle cx="18" cy="126" r="8.5" fill="white" stroke="#00122E" stroke-width="3"/>
</g>
<g clip-path="url(#clip39)">
<path d="M378 72L378 90L342 126L342 144" stroke="#0080FF" stroke-width="12" stroke-linejoin="round"/>
<circle cx="378" cy="90" r="8.5" fill="white" stroke="#00122E" stroke-width="3"/>
<circle cx="342" cy="126" r="8.5" fill="white" stroke="#00122E" stroke-width="3"/>
</g>
<g clip-path="url(#clip40)">
<path d="M90 360L90 378L54 414L54 432" stroke="#00BA5D" stroke-width="12" stroke-linejoin="round"/>
<circle cx="90" cy="378" r="8.5" fill="white" stroke="#00122E" stroke-width="3"/>
<circle cx="54" cy="414" r="8.5" fill="white" stroke="#00122E" stroke-width="3"/>
</g>
<g clip-path="url(#clip41)">
<path d="M90 216L90 234L126 270L126 288" stroke="#F0483E" stroke-width="12" stroke-linejoin="round"/>
<circle r="8.5" transform="matrix(-1 0 0 1 90 234)" fill="white" stroke="#00122E" stroke-width="3"/>
<circle r="8.5" transform="matrix(-1 0 0 1 126 270)" fill="white" stroke="#00122E" stroke-width="3"/>
</g>
<g clip-path="url(#clip42)">
<rect x="96" y="198" width="72" height="12" transform="rotate(90 96 198)" fill="#00BA5D"/>
<circle cx="90" cy="234" r="8.5" fill="white" stroke="#00122E" stroke-width="3"/>
</g>
<g clip-path="url(#clip43)">
<path d="M162 108L162 126L198 162L198 180" stroke="#00BA5D" stroke-width="12" stroke-linejoin="round"/>
<circle r="8.5" transform="matrix(-1 0 0 1 162 126)" fill="white" stroke="#00122E" stroke-width="3"/>
<circle r="8.5" transform="matrix(-1 0 0 1 198 162)" fill="white" stroke="#00122E" stroke-width="3"/>
</g>
<g clip-path="url(#clip44)">
<path d="M234 216L234 234L270 270L270 288" stroke="#F0483E" stroke-width="12" stroke-linejoin="round"/>
<circle r="8.5" transform="matrix(-1 0 0 1 234 234)" fill="white" stroke="#00122E" stroke-width="3"/>
<circle r="8.5" transform="matrix(-1 0 0 1 270 270)" fill="white" stroke="#00122E" stroke-width="3"/>
</g>
<g clip-path="url(#clip45)">
<rect x="168" y="90" width="72" height="12" transform="rotate(90 168 90)" fill="#0080FF"/>
<circle cx="162" cy="126" r="8.5" fill="white" stroke="#00122E" stroke-width="3"/>
</g>
<g clip-path="url(#clip46)">
<path d="M378 324L378 342L414 378L414 396" stroke="#00BA5D" stroke-width="12" stroke-linejoin="round"/>
<circle r="8.5" transform="matrix(-1 0 0 1 378 342)" fill="white" stroke="#00122E" stroke-width="3"/>
<circle r="8.5" transform="matrix(-1 0 0 1 414 378)" fill="white" stroke="#00122E" stroke-width="3"/>
</g>
<g clip-path="url(#clip47)">
<path d="M270 396L270 414L306 450L306 468" stroke="#F0483E" stroke-width="12" stroke-linejoin="round"/>
<circle r="8.5" transform="matrix(-1 0 0 1 270 414)" fill="white" stroke="#00122E" stroke-width="3"/>
<circle r="8.5" transform="matrix(-1 0 0 1 306 450)" fill="white" stroke="#00122E" stroke-width="3"/>
</g>
<g clip-path="url(#clip48)">
<path d="M306 396L306 414L270 450L270 468" stroke="#FEA008" stroke-width="12" stroke-linejoin="round"/>
<circle cx="306" cy="414" r="8.5" fill="white" stroke="#00122E" stroke-width="3"/>
<circle cx="270" cy="450" r="8.5" fill="white" stroke="#00122E" stroke-width="3"/>
</g>
<g clip-path="url(#clip49)">
<path d="M198 504L198 522L234 558L234 576" stroke="#00BA5D" stroke-width="12" stroke-linejoin="round"/>
<circle r="8.5" transform="matrix(-1 0 0 1 198 522)" fill="white" stroke="#00122E" stroke-width="3"/>
<circle r="8.5" transform="matrix(-1 0 0 1 234 558)" fill="white" stroke="#00122E" stroke-width="3"/>
</g>
<g clip-path="url(#clip50)">
<rect x="384" y="162" width="72" height="12" transform="rotate(90 384 162)" fill="#7E41FF"/>
<circle cx="378" cy="198" r="8.5" fill="white" stroke="#00122E" stroke-width="3"/>
</g>
<g clip-path="url(#clip51)">
<rect x="384" y="306" width="72" height="12" transform="rotate(90 384 306)" fill="#7E41FF"/>
<circle cx="378" cy="342" r="8.5" fill="white" stroke="#00122E" stroke-width="3"/>
</g>
<g clip-path="url(#clip52)">
<rect x="312" y="90" width="72" height="12" transform="rotate(90 312 90)" fill="#FEA008"/>
<circle cx="306" cy="126" r="8.5" fill="white" stroke="#00122E" stroke-width="3"/>
</g>
<g clip-path="url(#clip53)">
<rect x="240" y="18" width="72" height="12" transform="rotate(90 240 18)" fill="#F0483E"/>
<circle cx="234" cy="54" r="8.5" fill="white" stroke="#00122E" stroke-width="3"/>
</g>
<g clip-path="url(#clip54)">
<rect x="528" width="288" height="12" transform="rotate(90 528 0)" fill="#0080FF"/>
</g>
<g clip-path="url(#clip55)">
<rect x="456" y="144" width="108" height="12" transform="rotate(90 456 144)" fill="#FEA008"/>
</g>
<g clip-path="url(#clip56)">
<rect x="492" y="432" width="36" height="12" transform="rotate(90 492 432)" fill="#0080FF"/>
</g>
<g clip-path="url(#clip57)">
<rect x="528" y="288" width="72" height="12" transform="rotate(90 528 288)" fill="#0080FF"/>
</g>
<g clip-path="url(#clip58)">
<rect x="492" width="72" height="12" transform="rotate(90 492 0)" fill="#FEA008"/>
</g>
<g clip-path="url(#clip59)">
<rect x="564" width="108" height="12" transform="rotate(90 564 0)" fill="#F0483E"/>
</g>
<g clip-path="url(#clip60)">
<rect x="564" y="144" width="36" height="12" transform="rotate(90 564 144)" fill="#F0483E"/>
</g>
<g clip-path="url(#clip61)">
<rect x="600" width="360" height="12" transform="rotate(90 600 0)" fill="#00BA5D"/>
</g>
<g clip-path="url(#clip62)">
<rect x="672" width="216" height="12" transform="rotate(90 672 0)" fill="#0080FF"/>
</g>
<g clip-path="url(#clip63)">
<rect x="672" y="18" width="72" height="12" transform="rotate(90 672 18)" fill="#D0DAEC"/>
<circle cx="666" cy="54" r="8.5" fill="white" stroke="#00122E" stroke-width="3"/>
</g>
<g clip-path="url(#clip64)">
<rect x="564" y="288" width="324" height="12" transform="rotate(90 564 288)" fill="#7E41FF"/>
</g>
<g clip-path="url(#clip65)">
<rect x="636" y="180" width="108" height="12" transform="rotate(90 636 180)" fill="#FEA008"/>
</g>
<g clip-path="url(#clip66)">
<rect x="636" y="324" width="180" height="12" transform="rotate(90 636 324)" fill="#FEA008"/>
</g>
<g clip-path="url(#clip67)">
<rect x="744" width="396" height="12" transform="rotate(90 744 0)" fill="#00BA5D"/>
</g>
<g clip-path="url(#clip68)">
<rect x="564" y="108" width="36" height="12" transform="rotate(90 564 108)" fill="#F0483E"/>
</g>
<g clip-path="url(#clip69)">
<rect x="564" y="522" width="72" height="12" transform="rotate(90 564 522)" fill="#7E41FF"/>
<circle cx="558" cy="558" r="8.5" fill="white" stroke="#00122E" stroke-width="3"/>
</g>
<g clip-path="url(#clip70)">
<rect x="636" y="270" width="72" height="12" transform="rotate(90 636 270)" fill="#FEA008"/>
<circle cx="630" cy="306" r="8.5" fill="white" stroke="#00122E" stroke-width="3"/>
</g>
<g clip-path="url(#clip71)">
<rect x="672" y="576" width="108" height="12" transform="rotate(90 672 576)" fill="#FEA008"/>
</g>
<g clip-path="url(#clip72)">
<rect x="744" y="468" width="288" height="12" transform="rotate(90 744 468)" fill="#0080FF"/>
</g>
<g clip-path="url(#clip73)">
<rect x="708" y="288" width="108" height="12" transform="rotate(90 708 288)" fill="#0080FF"/>
</g>
<g clip-path="url(#clip74)">
<rect x="708" y="468" width="72" height="12" transform="rotate(90 708 468)" fill="#00BA5D"/>
</g>
<g clip-path="url(#clip75)">
<rect x="564" y="594" width="36" height="12" transform="rotate(90 564 594)" fill="#7E41FF"/>
<circle cx="558" cy="630" r="8.5" fill="white" stroke="#00122E" stroke-width="3"/>
</g>
<g clip-path="url(#clip76)">
<rect x="672" y="666" width="36" height="12" transform="rotate(90 672 666)" fill="#FEA008"/>
<circle cx="666" cy="702" r="8.5" fill="white" stroke="#00122E" stroke-width="3"/>
</g>
<g clip-path="url(#clip77)">
<rect x="708" y="522" width="36" height="12" transform="rotate(90 708 522)" fill="#00BA5D"/>
<circle cx="702" cy="558" r="8.5" fill="white" stroke="#00122E" stroke-width="3"/>
</g>
<g clip-path="url(#clip78)">
<rect x="744" y="738" width="36" height="12" transform="rotate(90 744 738)" fill="#0080FF"/>
<circle cx="738" cy="774" r="8.5" fill="white" stroke="#00122E" stroke-width="3"/>
</g>
<g clip-path="url(#clip79)">
<rect x="600" y="342" width="36" height="12" transform="rotate(90 600 342)" fill="#00BA5D"/>
<circle cx="594" cy="378" r="8.5" fill="white" stroke="#00122E" stroke-width="3"/>
</g>
<g clip-path="url(#clip80)">
<rect x="456" y="234" width="36" height="12" transform="rotate(90 456 234)" fill="#FEA008"/>
<circle cx="450" cy="270" r="8.5" fill="white" stroke="#00122E" stroke-width="3"/>
</g>
<g clip-path="url(#clip81)">
<rect x="564" y="162" width="36" height="12" transform="rotate(90 564 162)" fill="#F0483E"/>
<circle cx="558" cy="198" r="8.5" fill="white" stroke="#00122E" stroke-width="3"/>
</g>
<g clip-path="url(#clip82)">
<rect x="492" y="450" width="36" height="12" transform="rotate(90 492 450)" fill="#0080FF"/>
<circle cx="486" cy="486" r="8.5" fill="white" stroke="#00122E" stroke-width="3"/>
</g>
<g clip-path="url(#clip83)">
<rect x="528" y="216" width="36" height="12" transform="rotate(90 528 216)" fill="#D0DAEC"/>
</g>
<g clip-path="url(#clip84)">
<path d="M486 72L486 90L450 126L450 144" stroke="#FEA008" stroke-width="12" stroke-linejoin="round"/>
<circle cx="486" cy="90" r="8.5" fill="white" stroke="#00122E" stroke-width="3"/>
<circle cx="450" cy="126" r="8.5" fill="white" stroke="#00122E" stroke-width="3"/>
</g>
<g clip-path="url(#clip85)">
<path d="M522 360L522 378L486 414L486 432" stroke="#0080FF" stroke-width="12" stroke-linejoin="round"/>
<circle cx="522" cy="378" r="8.5" fill="white" stroke="#00122E" stroke-width="3"/>
<circle cx="486" cy="414" r="8.5" fill="white" stroke="#00122E" stroke-width="3"/>
</g>
<g clip-path="url(#clip86)">
<path d="M522 216L522 234L558 270L558 288" stroke="#7E41FF" stroke-width="12" stroke-linejoin="round"/>
<circle r="8.5" transform="matrix(-1 0 0 1 522 234)" fill="white" stroke="#00122E" stroke-width="3"/>
<circle r="8.5" transform="matrix(-1 0 0 1 558 270)" fill="white" stroke="#00122E" stroke-width="3"/>
</g>
<g clip-path="url(#clip87)">
<path d="M594 108L594 126L630 162L630 180" stroke="#FEA008" stroke-width="12" stroke-linejoin="round"/>
<circle r="8.5" transform="matrix(-1 0 0 1 594 126)" fill="white" stroke="#00122E" stroke-width="3"/>
<circle r="8.5" transform="matrix(-1 0 0 1 630 162)" fill="white" stroke="#00122E" stroke-width="3"/>
</g>
<g clip-path="url(#clip88)">
<path d="M666 216L666 234L702 270L702 288" stroke="#0080FF" stroke-width="12" stroke-linejoin="round"/>
<circle r="8.5" transform="matrix(-1 0 0 1 666 234)" fill="white" stroke="#00122E" stroke-width="3"/>
<circle r="8.5" transform="matrix(-1 0 0 1 702 270)" fill="white" stroke="#00122E" stroke-width="3"/>
</g>
<g clip-path="url(#clip89)">
<path d="M702 396L702 414L738 450L738 468" stroke="#0080FF" stroke-width="12" stroke-linejoin="round"/>
<circle r="8.5" transform="matrix(-1 0 0 1 702 414)" fill="white" stroke="#00122E" stroke-width="3"/>
<circle r="8.5" transform="matrix(-1 0 0 1 738 450)" fill="white" stroke="#00122E" stroke-width="3"/>
</g>
<g clip-path="url(#clip90)">
<path d="M738 396L738 414L702 450L702 468" stroke="#00BA5D" stroke-width="12" stroke-linejoin="round"/>
<circle cx="738" cy="414" r="8.5" fill="white" stroke="#00122E" stroke-width="3"/>
<circle cx="702" cy="450" r="8.5" fill="white" stroke="#00122E" stroke-width="3"/>
</g>
<g clip-path="url(#clip91)">
<path d="M630 504L630 522L666 558L666 576" stroke="#FEA008" stroke-width="12" stroke-linejoin="round"/>
<circle r="8.5" transform="matrix(-1 0 0 1 630 522)" fill="white" stroke="#00122E" stroke-width="3"/>
<circle r="8.5" transform="matrix(-1 0 0 1 666 558)" fill="white" stroke="#00122E" stroke-width="3"/>
</g>
<g clip-path="url(#clip92)">
<rect x="744" y="90" width="72" height="12" transform="rotate(90 744 90)" fill="#00BA5D"/>
<circle cx="738" cy="126" r="8.5" fill="white" stroke="#00122E" stroke-width="3"/>
</g>
<g clip-path="url(#clip93)">
<rect x="528" y="198" width="72" height="12" transform="rotate(90 528 198)" fill="#0080FF"/>
<circle cx="522" cy="234" r="8.5" fill="white" stroke="#00122E" stroke-width="3"/>
</g>
<g clip-path="url(#clip94)">
<rect x="600" y="90" width="72" height="12" transform="rotate(90 600 90)" fill="#00BA5D"/>
<circle cx="594" cy="126" r="8.5" fill="white" stroke="#00122E" stroke-width="3"/>
</g>
<g clip-path="url(#clip95)">
<rect x="384" width="80" height="12" transform="rotate(90 384 0)" fill="#0080FF"/>
</g>
<path d="M0 0H1440V800H0V0Z" fill="url(#paint0_linear)"/>
</g>
<defs>
<linearGradient id="paint0_linear" x1="720" y1="0" x2="720" y2="792" gradientUnits="userSpaceOnUse">
<stop stop-color="#E1E7F1"/>
<stop offset="0.304913" stop-color="white" stop-opacity="0"/>
</linearGradient>
<clipPath id="clip0">
<rect width="756" height="800" fill="white"/>
</clipPath>
<clipPath id="clip1">
<rect width="36" height="288" fill="white" transform="translate(72)"/>
</clipPath>
<clipPath id="clip2">
<rect width="36" height="108" fill="white" transform="translate(0 144)"/>
</clipPath>
<clipPath id="clip3">
<rect width="36" height="180" fill="white" transform="translate(324 144)"/>
</clipPath>
<clipPath id="clip4">
<rect width="36" height="36" fill="white" transform="translate(36 432)"/>
</clipPath>
<clipPath id="clip5">
<rect width="36" height="72" fill="white" transform="translate(72 288)"/>
</clipPath>
<clipPath id="clip6">
<rect width="36" height="72" fill="white" transform="translate(36)"/>
</clipPath>
<clipPath id="clip7">
<rect width="36" height="504" fill="white" transform="translate(360)"/>
</clipPath>
<clipPath id="clip8">
<rect width="36" height="108" fill="white" transform="translate(108)"/>
</clipPath>
<clipPath id="clip9">
<rect width="36" height="252" fill="white" transform="translate(396)"/>
</clipPath>
<clipPath id="clip10">
<rect width="36" height="36" fill="white" transform="translate(108 144)"/>
</clipPath>
<clipPath id="clip11">
<rect width="36" height="360" fill="white" transform="translate(144)"/>
</clipPath>
<clipPath id="clip12">
<rect width="36" height="216" fill="white" transform="translate(216)"/>
</clipPath>
<clipPath id="clip13">
<rect width="36" height="360" fill="white" transform="translate(108 288)"/>
</clipPath>
<clipPath id="clip14">
<rect width="36" height="108" fill="white" transform="translate(180 180)"/>
</clipPath>
<clipPath id="clip15">
<rect width="36" height="180" fill="white" transform="translate(180 324)"/>
</clipPath>
<clipPath id="clip16">
<rect width="36" height="396" fill="white" transform="translate(288)"/>
</clipPath>
<clipPath id="clip17">
<rect width="36" height="36" fill="white" transform="translate(108 108)"/>
</clipPath>
<clipPath id="clip18">
<rect width="36" height="36" fill="white" transform="translate(108 540)"/>
</clipPath>
<clipPath id="clip19">
<rect width="36" height="36" fill="white" transform="translate(180 288)"/>
</clipPath>
<clipPath id="clip20">
<rect width="36" height="108" fill="white" transform="translate(216 576)"/>
</clipPath>
<clipPath id="clip21">
<rect width="36" height="144" fill="white" transform="translate(288 468)"/>
</clipPath>
<clipPath id="clip22">
<rect width="36" height="108" fill="white" transform="translate(252 288)"/>
</clipPath>
<clipPath id="clip23">
<rect width="36" height="252" fill="white" transform="translate(396 396)"/>
</clipPath>
<clipPath id="clip24">
<rect width="36" height="72" fill="white" transform="translate(252 468)"/>
</clipPath>
<clipPath id="clip25">
<rect width="36" height="36" fill="white" transform="translate(108 648)"/>
</clipPath>
<clipPath id="clip26">
<rect width="36" height="36" fill="white" transform="translate(216 684)"/>
</clipPath>
<clipPath id="clip27">
<rect width="36" height="36" fill="white" transform="translate(252 540)"/>
</clipPath>
<clipPath id="clip28">
<rect width="36" height="36" fill="white" transform="translate(288 612)"/>
</clipPath>
<clipPath id="clip29">
<rect width="36" height="36" fill="white" transform="translate(360 504)"/>
</clipPath>
<clipPath id="clip30">
<rect width="36" height="36" fill="white" transform="translate(396 648)"/>
</clipPath>
<clipPath id="clip31">
<rect width="36" height="36" fill="white" transform="translate(144 360)"/>
</clipPath>
<clipPath id="clip32">
<rect width="36" height="36" fill="white" transform="translate(0 252)"/>
</clipPath>
<clipPath id="clip33">
<rect width="36" height="36" fill="white" transform="translate(324 324)"/>
</clipPath>
<clipPath id="clip34">
<rect width="36" height="36" fill="white" transform="translate(108 180)"/>
</clipPath>
<clipPath id="clip35">
<rect width="36" height="36" fill="white" transform="translate(396 252)"/>
</clipPath>
<clipPath id="clip36">
<rect width="36" height="36" fill="white" transform="translate(36 468)"/>
</clipPath>
<clipPath id="clip37">
<rect width="36" height="36" fill="white" transform="translate(72 216)"/>
</clipPath>
<clipPath id="clip38">
<rect width="72" height="72" fill="white" transform="translate(0 72)"/>
</clipPath>
<clipPath id="clip39">
<rect width="72" height="72" fill="white" transform="translate(324 72)"/>
</clipPath>
<clipPath id="clip40">
<rect width="72" height="72" fill="white" transform="translate(36 360)"/>
</clipPath>
<clipPath id="clip41">
<rect width="72" height="72" fill="white" transform="matrix(-1 0 0 1 144 216)"/>
</clipPath>
<clipPath id="clip42">
<rect width="36" height="36" fill="white" transform="translate(72 216)"/>
</clipPath>
<clipPath id="clip43">
<rect width="72" height="72" fill="white" transform="matrix(-1 0 0 1 216 108)"/>
</clipPath>
<clipPath id="clip44">
<rect width="72" height="72" fill="white" transform="matrix(-1 0 0 1 288 216)"/>
</clipPath>
<clipPath id="clip45">
<rect width="36" height="36" fill="white" transform="translate(144 108)"/>
</clipPath>
<clipPath id="clip46">
<rect width="72" height="72" fill="white" transform="matrix(-1 0 0 1 432 324)"/>
</clipPath>
<clipPath id="clip47">
<rect width="72" height="72" fill="white" transform="matrix(-1 0 0 1 324 396)"/>
</clipPath>
<clipPath id="clip48">
<rect width="72" height="72" fill="white" transform="translate(252 396)"/>
</clipPath>
<clipPath id="clip49">
<rect width="72" height="72" fill="white" transform="matrix(-1 0 0 1 252 504)"/>
</clipPath>
<clipPath id="clip50">
<rect width="36" height="36" fill="white" transform="translate(360 180)"/>
</clipPath>
<clipPath id="clip51">
<rect width="36" height="36" fill="white" transform="translate(360 324)"/>
</clipPath>
<clipPath id="clip52">
<rect width="36" height="36" fill="white" transform="translate(288 108)"/>
</clipPath>
<clipPath id="clip53">
<rect width="36" height="36" fill="white" transform="translate(216 36)"/>
</clipPath>
<clipPath id="clip54">
<rect width="72" height="288" fill="white" transform="translate(504)"/>
</clipPath>
<clipPath id="clip55">
<rect width="36" height="108" fill="white" transform="translate(432 144)"/>
</clipPath>
<clipPath id="clip56">
<rect width="36" height="36" fill="white" transform="translate(468 432)"/>
</clipPath>
<clipPath id="clip57">
<rect width="36" height="72" fill="white" transform="translate(504 288)"/>
</clipPath>
<clipPath id="clip58">
<rect width="36" height="72" fill="white" transform="translate(468)"/>
</clipPath>
<clipPath id="clip59">
<rect width="36" height="108" fill="white" transform="translate(540)"/>
</clipPath>
<clipPath id="clip60">
<rect width="36" height="36" fill="white" transform="translate(540 144)"/>
</clipPath>
<clipPath id="clip61">
<rect width="36" height="360" fill="white" transform="translate(576)"/>
</clipPath>
<clipPath id="clip62">
<rect width="36" height="216" fill="white" transform="translate(648)"/>
</clipPath>
<clipPath id="clip63">
<rect width="36" height="36" fill="white" transform="translate(648 36)"/>
</clipPath>
<clipPath id="clip64">
<rect width="36" height="324" fill="white" transform="translate(540 288)"/>
</clipPath>
<clipPath id="clip65">
<rect width="36" height="108" fill="white" transform="translate(612 180)"/>
</clipPath>
<clipPath id="clip66">
<rect width="36" height="180" fill="white" transform="translate(612 324)"/>
</clipPath>
<clipPath id="clip67">
<rect width="36" height="396" fill="white" transform="translate(720)"/>
</clipPath>
<clipPath id="clip68">
<rect width="36" height="36" fill="white" transform="translate(540 108)"/>
</clipPath>
<clipPath id="clip69">
<rect width="36" height="36" fill="white" transform="translate(540 540)"/>
</clipPath>
<clipPath id="clip70">
<rect width="36" height="36" fill="white" transform="translate(612 288)"/>
</clipPath>
<clipPath id="clip71">
<rect width="36" height="108" fill="white" transform="translate(648 576)"/>
</clipPath>
<clipPath id="clip72">
<rect width="36" height="288" fill="white" transform="translate(720 468)"/>
</clipPath>
<clipPath id="clip73">
<rect width="36" height="108" fill="white" transform="translate(684 288)"/>
</clipPath>
<clipPath id="clip74">
<rect width="36" height="72" fill="white" transform="translate(684 468)"/>
</clipPath>
<clipPath id="clip75">
<rect width="36" height="36" fill="white" transform="translate(540 612)"/>
</clipPath>
<clipPath id="clip76">
<rect width="36" height="36" fill="white" transform="translate(648 684)"/>
</clipPath>
<clipPath id="clip77">
<rect width="36" height="36" fill="white" transform="translate(684 540)"/>
</clipPath>
<clipPath id="clip78">
<rect width="36" height="36" fill="white" transform="translate(720 756)"/>
</clipPath>
<clipPath id="clip79">
<rect width="36" height="36" fill="white" transform="translate(576 360)"/>
</clipPath>
<clipPath id="clip80">
<rect width="36" height="36" fill="white" transform="translate(432 252)"/>
</clipPath>
<clipPath id="clip81">
<rect width="36" height="36" fill="white" transform="translate(540 180)"/>
</clipPath>
<clipPath id="clip82">
<rect width="36" height="36" fill="white" transform="translate(468 468)"/>
</clipPath>
<clipPath id="clip83">
<rect width="36" height="36" fill="white" transform="translate(504 216)"/>
</clipPath>
<clipPath id="clip84">
<rect width="72" height="72" fill="white" transform="translate(432 72)"/>
</clipPath>
<clipPath id="clip85">
<rect width="72" height="72" fill="white" transform="translate(468 360)"/>
</clipPath>
<clipPath id="clip86">
<rect width="72" height="72" fill="white" transform="matrix(-1 0 0 1 576 216)"/>
</clipPath>
<clipPath id="clip87">
<rect width="72" height="72" fill="white" transform="matrix(-1 0 0 1 648 108)"/>
</clipPath>
<clipPath id="clip88">
<rect width="72" height="72" fill="white" transform="matrix(-1 0 0 1 720 216)"/>
</clipPath>
<clipPath id="clip89">
<rect width="72" height="72" fill="white" transform="matrix(-1 0 0 1 756 396)"/>
</clipPath>
<clipPath id="clip90">
<rect width="72" height="72" fill="white" transform="translate(684 396)"/>
</clipPath>
<clipPath id="clip91">
<rect width="72" height="72" fill="white" transform="matrix(-1 0 0 1 684 504)"/>
</clipPath>
<clipPath id="clip92">
<rect width="36" height="36" fill="white" transform="translate(720 108)"/>
</clipPath>
<clipPath id="clip93">
<rect width="36" height="36" fill="white" transform="translate(504 216)"/>
</clipPath>
<clipPath id="clip94">
<rect width="36" height="36" fill="white" transform="translate(576 108)"/>
</clipPath>
<clipPath id="clip95">
<rect width="36" height="80" fill="white" transform="translate(360)"/>
</clipPath>
</defs>
</svg>
