<svg fill="none" height="168" viewBox="0 0 240 168" width="240" xmlns="http://www.w3.org/2000/svg" xmlns:xlink="http://www.w3.org/1999/xlink"><mask id="a" height="161" maskUnits="userSpaceOnUse" width="240" x="0" y="4"><path clip-rule="evenodd" d="m240 22.6351-17.835-17.83505-5.096 5.09572 8.116 8.11613h-109.315v7.2064h111.355l-10.156 10.1561 5.096 5.0957zm-213.2233 13.3929h-23.48097v-1.1843l10.20917-10.8217c2.8993-3.1035 4.8187-5.5946 4.8187-8.0448 0-1.9601-1.021-3.2669-3.1036-3.2669-2.0827 0-3.3894 1.2659-3.757 4.7371h-7.59556c.28585-7.3098 4.6962-11.0259 11.76096-11.0259 7.1463 0 10.9441 3.8386 10.9441 9.229 0 4.002-2.246 7.0239-5.5129 10.1683l-4.0836 3.9612h9.8007zm10.9586-14.007c0 5.4313 1.5926 8.004 5.1862 8.004s5.0229-2.6544 5.0229-8.0448v-1.1843c0-5.3495-1.5518-8.0447-5.1046-8.0447-3.5119 0-5.1045 2.6543-5.1045 8.0447zm18.5806-.2041c0 9.2698-5.3088 14.7011-13.6394 14.7011-8.1673 0-13.3127-5.2679-13.3127-14.4561v-1.2251c0-9.2291 5.7579-14.4153 13.476-14.4153 7.6773 0 13.4761 4.7779 13.4761 14.2519zm1.814 14.2111h23.481v-6.248h-9.8008l4.0837-3.9612c3.2669-3.1444 5.5129-6.1663 5.5129-10.1683 0-5.3904-3.7978-9.229-10.9442-9.229-7.0647 0-11.475 3.7161-11.7609 11.0259h7.5956c.3675-3.4712 1.6743-4.7371 3.757-4.7371 2.0826 0 3.1035 1.3068 3.1035 3.2669 0 2.4502-1.9193 4.9413-4.8187 8.0448l-10.2091 10.8217zm48.8041 0h-23.4807v-1.1843l10.2091-10.8217c2.8994-3.1035 4.8188-5.5946 4.8188-8.0448 0-1.9601-1.021-3.2669-3.1036-3.2669-2.0827 0-3.3894 1.2659-3.757 4.7371h-7.5956c.2859-7.3098 4.6962-11.0259 11.7609-11.0259 7.1461 0 10.9441 3.8386 10.9441 9.229 0 4.002-2.246 7.0239-5.513 10.1683l-4.0835 3.9612h9.8005zm-92.0293 73.791h-8.55765v9.909h-5.404826v7.882h5.404826c-1.95174 4.954-3.90348 9.233-5.855229 12.836.600539 4.204 1.126009 8.408 1.576409 12.612 1.65148-2.703 3.07775-5.555 4.27882-8.558v19.367h8.55765v-20.493l2.7024 2.702 4.0536-7.657c-.9008-.6-2.252-1.576-4.0536-2.927l-2.7024-2.027v-5.855h4.504v-7.882h-4.504zm13.9625 15.088c-3.4531 3.303-7.0563 6.006-10.8097 8.108 1.8016 2.102 3.5282 4.203 5.1797 6.305 5.1045-3.603 9.3833-6.906 12.8364-9.909l-4.7292-4.504h11.2601l-4.2789 4.504c1.9518 1.502 4.5791 3.604 7.8821 6.306 1.9517 1.501 3.4531 2.627 4.504 3.378l4.9544-6.531c-3.1528-2.402-6.0053-4.504-8.5576-6.305l-2.0268-1.352h9.4584v-8.107h-12.386c-.4504-2.252-.9008-4.579-1.3512-6.981l-9.2333.676c.4504 2.252.9759 4.353 1.5764 6.305h-12.8365v8.107zm7.882 20.269c-1.9517-2.403-3.6783-5.405-5.1796-9.009l-7.4316 3.153c1.8016 4.504 3.9034 8.258 6.3056 11.26-3.303 2.102-7.807 4.054-13.5121 5.856 1.8016 2.252 3.5282 4.729 5.1796 7.431 6.0054-2.252 10.8848-4.654 14.6381-7.206 3.6032 2.252 8.1823 4.504 13.7373 6.756.7507-1.351 2.0268-3.378 3.8284-6.081.6006-.75 1.051-1.351 1.3512-1.801-5.7051-1.502-9.9088-3.153-12.6112-4.955 2.5522-3.152 4.6541-7.056 6.3056-11.71l-7.882-2.703c-1.051 3.303-2.6274 6.306-4.7293 9.009zm27.1053-33.781v52.472h8.7828v-2.252h33.3297v2.252h8.783v-52.472zm37.8335 28.826c-.6-.3-1.126-.525-1.576-.676 0 .751-.075 1.802-.2253 3.153v1.802c-.1502 1.201-.6006 1.726-1.3512 1.576-.9008 0-1.3513-.525-1.3513-1.576v-5.855h7.4318v-6.982h-30.6275v6.982h4.9544c.1502 3.903-1.9517 7.206-6.3056 9.909v-29.502h33.3297v35.357h-27.6997c5.8553-4.054 8.6328-9.309 8.3325-15.764h2.7024v7.882c-.1501 4.504 1.9518 6.681 6.3056 6.531h2.4773c4.0539 0 6.2309-1.577 6.5309-4.73.45-1.951.751-4.203.901-6.756-.901-.15-2.177-.6-3.829-1.351zm-29.0507 8.333c2.1019 2.402 3.9035 4.353 5.4048 5.855h-5.4048zm29.9517-26.799h-26.5737v6.981h26.5737zm48.725 41.887h-8.783v-25.448h33.104v25.448h-8.782v-2.702h-15.539zm-14.188-53.373v8.558h4.504v8.332h-4.504v6.756h.676c.75-.15 1.801-.45 3.152-.9v8.783l-2.026.675c-.751.15-1.352.3-1.802.451v13.512c0 4.353-2.027 6.605-6.08 6.756-1.952.3-4.054.45-6.306.45 0-.15-.075-.525-.225-1.126-.301-1.952-.751-4.279-1.352-6.981h3.604c1.351 0 1.951-.751 1.801-2.252v-8.107c-.45.15-1.276.375-2.477.675-1.051.3-1.877.526-2.477.676l-.676-9.459c.601-.15 1.577-.375 2.928-.675 1.201-.15 2.102-.301 2.702-.451v-8.783h-4.729v-8.332h4.729v-8.558zm5.18 9.234v-7.882h33.78c0 1.201-.075 3.077-.225 5.63-.301 4.954-.451 8.182-.451 9.683 0 5.705-3.003 8.483-9.008 8.333-1.201.15-3.978.225-8.332.225-.15-.901-.451-2.252-.901-4.054-.451-1.952-.826-3.303-1.126-4.053 1.952.15 4.429.225 7.432.225 2.252.15 3.302-.901 3.152-3.153v-1.802c.15-1.201.226-2.252.226-3.152h-9.234c-.15 7.206-3.978 13.362-11.485 18.466-.601-.751-1.576-1.802-2.928-3.153-1.501-1.501-2.552-2.627-3.152-3.378 5.705-3.603 8.632-7.582 8.782-11.935zm9.008 26.573v7.432h15.539v-7.432zm32.96-33.555v7.657h2.252v30.402h-1.351c-.601.15-1.051.226-1.351.226l1.351 7.656c.901-.15 2.177-.3 3.828-.45 3.904-.45 6.756-.676 8.558-.676v6.306h7.206v-7.206c.451 0 1.051-.075 1.802-.226h1.576c-.15-2.252-.225-4.879-.225-7.882-.3 0-.826.075-1.576.226-.751 0-1.276.075-1.577.225v-28.601h1.802v-7.657zm41.662-2.477h-7.431v4.279h-10.81v22.745h29.276v-22.745h-11.035zm12.837 29.051h-32.88v6.306h4.73l-1.802 7.882h18.692c.3 2.252-.601 3.303-2.703 3.153h-4.053c-2.553-.151-4.354-.226-5.405-.226.751 2.102 1.351 4.429 1.801 6.982 1.352 0 3.454-.075 6.306-.226h3.829c5.254 0 7.957-2.402 8.107-7.206.3-3.153.3-3.528 0-1.126.3-3.453.45-5.93.45-7.432h-17.791l.451-1.801h20.268zm-43.014 10.585c-.9 0-1.576.075-2.026.225v-5.855h3.828v5.404c-.45 0-1.051.075-1.802.226zm-2.026-12.161v-5.405h3.828v5.405zm0-11.936v-5.405h3.828v5.405zm32.203-5.18h4.054v2.478h-4.054zm4.054 8.333v2.477h-4.054v-2.477zm-15.314-5.855v-2.478h3.829v2.478zm0 8.332v-2.477h3.829v2.477zm-202.5394-62.9264c0 1.9521 1.8089 3.0365 5.2801 3.1094 7.0135.2174 15.4745 1.663 15.5455 11.4968.0729 5.7852-4.266 12.0045-15.6184 12.0045-5.2788 0-10.70207-1.0121-16.776912-6.0748l4.483402-7.3753c4.41178 3.6151 8.67781 4.4105 12.43801 4.4834 3.0378.0716 5.4233-1.1573 5.3517-3.0378 0-1.663-1.2302-3.0358-6.0755-3.1803-6.6515-.2903-14.96807-3.0377-14.96807-11.4259 0-8.0985 7.66564-11.4981 15.40287-11.4981 5.4962 0 9.9067 1.374 13.6663 4.6279l-5.1343 6.5083c-2.6758-1.8804-5.2052-2.6023-8.4604-2.6023-3.3983 0-5.1343 1.2283-5.1343 2.9642zm55.2511-4.628c3.1823-4.8453 6.58-6.7257 11.8588-6.7257 7.4482 0 14.2456 3.7615 14.2456 17.0659v19.5244h-10.486v-19.307c0-4.4834-1.2283-7.4483-5.4227-7.4483-4.1221 0-6.5806 3.5423-6.5806 7.5928v19.1625h-10.2679v-19.1625c0-4.7008-1.8792-7.8102-6.1471-7.8102-4.1215 0-6.4355 3.8332-6.4355 7.8818v8.5218 10.5691h-10.413v-10.5691-25.153h9.1112 1.3018v3.2175c2.3204-3.1836 6.0225-4.0129 8.8223-4.0129 3.9041 0 8.0992 1.4457 10.4131 6.6529zm85.2673-5.7846v3.8612c2.386-3.3267 5.641-4.7295 9.618-4.7295 3.399 0 6.22 1.0128 8.75 3.2538l-4.34 8.243c-1.734-1.2282-3.542-1.8075-5.711-1.8075-4.485 0-8.317 2.8932-8.317 8.2436v18.5845h-10.413v-35.6491h9.691zm36.522 22.2716c0 3.7596 2.097 4.7724 4.049 4.7724 1.23 0 3.182-.289 4.339-.8683l2.386 8.6785c-2.602 1.0128-4.7 1.4456-7.521 1.5901-7.736.3619-13.593-3.0358-13.593-14.1727v-13.4508h-6.364v-8.6765h6.364v-3.9719l10.413-6.0077v9.9796h9.038v8.6765h-9.111zm-81.865-4.4834c0 5.929 4.193 9.4003 9.4 9.4003 5.857 0 9.472-4.5551 9.472-9.0384 0-5.1343-3.254-9.8351-9.472-9.8351-5.207 0-9.4 3.5435-9.4 9.4732zm18.872-13.7392v-4.1222h.362 9.762v35.7227h-9.4-.724v-4.298c-2.438 3.6119-7.437 5.0224-10.846 5.0928-10.702.0728-18.439-6.869-18.439-18.6561 0-11.8588 8.171-18.8006 18.728-18.6561 4.483 0 8.678 1.7346 10.557 4.9169zm100.615 13.336 12.782 18.2645h-12.437l-6.554-9.3654-6.534 9.3654h-12.51l12.799-18.2902-12.148-17.3594h12.436l5.93 8.4741 5.931-8.4741h12.436z" fill="#fff" fill-rule="evenodd"/></mask><g mask="url(#a)"><rect fill="#fff" height="159.743" rx="8" width="240.215" y="4.80005"/><ellipse cx="53.4" cy="53.4001" fill="#f23d16" rx="64.2" ry="63"/><ellipse cx="120" cy="135.6" fill="#3d7fff" rx="48" ry="48"/><g fill="#3d17d2"><ellipse cx="45.6" cy="127.2" rx="48" ry="48"/><ellipse cx="45.6" cy="127.2" rx="48" ry="48"/><ellipse cx="45.6" cy="127.2" rx="48" ry="48"/><ellipse cx="45.6" cy="127.2" rx="48" ry="48"/><ellipse cx="45.6" cy="127.2" rx="48" ry="48"/><ellipse cx="45.6" cy="127.2" rx="48" ry="48"/><ellipse cx="45.6" cy="127.2" rx="48" ry="48"/></g><ellipse cx="87.6" cy="3.60005" fill="#ffa572" rx="34.8" ry="34.8"/><ellipse cx="183" cy="73.2001" fill="#17d235" rx="83.4" ry="82.8"/><ellipse cx="136.8" cy="40.8001" fill="#ffad0d" rx="37.2" ry="37.2"/><circle cx="222" cy="64.8" fill="#ff0dbb" r="28.8"/><ellipse cx="224.4" cy="147.6" fill="#7d2dff" rx="30" ry="30"/><ellipse cx="30" cy="151.2" fill="#7d2dff" rx="30" ry="30"/><g fill="#ffd600"><circle cx="171.6" cy="158.4" r="15.6"/><ellipse cx="172.2" cy="68.3999" rx="24.6" ry="25.2"/></g></g></svg>