<svg fill="none" height="56" viewBox="0 0 56 56" width="56" xmlns="http://www.w3.org/2000/svg" xmlns:xlink="http://www.w3.org/1999/xlink"><radialGradient id="a" cx="0" cy="0" gradientTransform="matrix(49.2421621 -38.46098394 37.31587615 47.77606379 3 47.4609)" gradientUnits="userSpaceOnUse" r="1"><stop offset="0" stop-color="#5bcaff"/><stop offset="1" stop-color="#06f"/></radialGradient><path d="m10.0781 47.4609h35.7188c4.0781 0 6.4453-2.3671 6.4453-6.9843v-24.4922c0-4.6172-2.3906-6.9844-7.0781-6.9844h-35.71879c-4.07812 0-6.44531 2.3438-6.44531 6.9844v24.4922c0 4.6172 2.39062 6.9843 7.0781 6.9843zm14.9531-18.2343-16.54682-16.336c.44531-.164.9375-.2344 1.52342-.2344h35.25c.586 0 1.1016.0938 1.5469.2579l-16.5235 16.3125c-.9374.9375-1.7578 1.3359-2.625 1.3359-.8671 0-1.6874-.4219-2.625-1.3359zm-18.37495 11.1796v-24.4921l12.49215 12.3047-12.49215 12.375c0-.1876 0-.1876 0-.1876zm41.95315.1172-12.4453-12.3046 12.4453-12.2344zm-38.6016 3.2813c-.56249 0-1.05468-.0703-1.47655-.2344l13.07815-12.9375 1.3594 1.336c1.5703 1.5703 3.0937 2.2031 4.6874 2.2031 1.5938 0 3.1172-.6328 4.6876-2.2031l1.3593-1.336 13.0547 12.9141c-.4219.164-.9375.2578-1.5.2578z" fill="url(#a)"/></svg>