<svg fill="none" height="32" viewBox="0 0 32 32" width="32" xmlns="http://www.w3.org/2000/svg"><path d="m9.352 4c-4.896 3.456-8.352 9.12-8.352 15.36 0 5.088 3.072 8.064 6.624 8.064 3.36 0 5.856-2.688 5.856-5.856s-2.208-5.472-5.088-5.472c-.576 0-1.344.096-1.536.192.48-3.264 3.552-7.104 6.624-9.024zm16.512 0c-4.8 3.456-8.256 9.12-8.256 15.36 0 5.088 3.072 8.064 6.624 8.064 3.264 0 5.856-2.688 5.856-5.856s-2.304-5.472-5.184-5.472c-.576 0-1.248.096-1.44.192.48-3.264 3.456-7.104 6.528-9.024z" fill="#08f" fill-opacity=".2"/></svg>