<svg fill="none" height="56" viewBox="0 0 57 56" width="57" xmlns="http://www.w3.org/2000/svg" xmlns:xlink="http://www.w3.org/1999/xlink"><radialGradient id="a" cx="0" cy="0" gradientTransform="matrix(60.00000991 -57.00001084 56.9250749 59.92112998 -1.5 57)" gradientUnits="userSpaceOnUse" r="1"><stop offset="0" stop-color="#5bcaff"/><stop offset="1" stop-color="#06f"/></radialGradient><path d="m12.7969 52.0234c1.2422.9375 2.789.6563 4.4765-.5859l11.2266-8.25 11.2031 8.25c1.6875 1.2422 3.2344 1.5234 4.4766.5859s1.5-2.4843.8203-4.4296l-4.4297-13.1719 11.3203-8.1094c1.6875-1.1953 2.4141-2.5781 1.9219-4.0781-.5156-1.4532-1.8984-2.1563-3.9609-2.1328l-13.875.0937-4.2188-13.26561c-.6328-1.99219-1.7109-3.09375-3.2578-3.09375s-2.625 1.10156-3.2812 3.09375l-4.2188 13.26561-13.875-.0937c-2.0625-.0235-3.44531.6796-3.9375 2.1328-.51562 1.5.23438 2.8828 1.92188 4.0781l11.32032 8.1094-4.4531 13.1719c-.6563 1.9453-.3985 3.4921.8203 4.4296z" fill="url(#a)"/></svg>