<svg fill="none" height="24" viewBox="0 0 24 24" width="24" xmlns="http://www.w3.org/2000/svg"><path d="m12.3672 23.7109c6.2109 0 11.3555-5.1445 11.3555-11.3554 0-6.21097-5.1563-11.3555-11.3672-11.3555-6.21097 0-11.3555 5.14453-11.3555 11.3555 0 6.2109 5.15625 11.3554 11.3672 11.3554zm0-2.0156c-5.1797 0-9.32814-4.1601-9.32814-9.3398 0-5.17972 4.13672-9.33988 9.31644-9.33988 5.1797 0 9.3398 4.16016 9.3515 9.33988.0118 5.1797-4.1601 9.3398-9.3398 9.3398zm-2.51954-3.8555c.30464.293.90234.2696 1.23044-.0351l4.5703-4.3125c.6446-.5977.6446-1.6406 0-2.2383l-4.5703-4.31249c-.3633-.32813-.8906-.35157-1.21872-.03516-.36329.33984-.375.91406-.02344 1.24219l4.49996 4.21876-4.49996 4.2305c-.33985.3281-.35156.8906.01172 1.2421z" fill="#2c3852" fill-opacity=".6"/></svg>