<svg fill="none" height="56" viewBox="0 0 57 56" width="57" xmlns="http://www.w3.org/2000/svg" xmlns:xlink="http://www.w3.org/1999/xlink"><radialGradient id="a" cx="0" cy="0" gradientTransform="matrix(53.0390865 -44.88278806 44.26426977 52.30816833 1.96875 52.4219)" gradientUnits="userSpaceOnUse" r="1"><stop offset="0" stop-color="#5bcaff"/><stop offset="1" stop-color="#06f"/></radialGradient><path clip-rule="evenodd" d="m7.82812 44.5c-3.89062 0-5.85937-1.8984-5.85937-5.8594v-25.2422c0-3.9609 1.96875-5.85934 5.85937-5.85934h41.32028c3.8672 0 5.8594 1.89844 5.8594 5.85934v25.2422c0 3.961-1.9922 5.8594-5.8594 5.8594h-13.7578l.6094 4.1953h2.6719c1.0312 0 1.875.8438 1.875 1.875 0 1.0078-.8438 1.8516-1.875 1.8516h-20.1563c-1.0312 0-1.875-.8438-1.875-1.8516 0-1.0312.8438-1.875 1.875-1.875h2.4375l.6328-4.1953zm-2.03906-30.9844v25.0078c0 1.5469.67969 2.1563 2.15625 2.1563h41.06249c1.5 0 2.1797-.6094 2.1797-2.1563v-25.0078c0-1.5468-.6797-2.1562-2.1797-2.1562h-41.06249c-1.47656 0-2.15625.6094-2.15625 2.1562zm29.21094 10.9844c0 3.5899-2.9101 6.5-6.5 6.5s-6.5-2.9101-6.5-6.5 2.9101-6.5 6.5-6.5 6.5 2.9101 6.5 6.5zm-17.9148 14.5c.7103-3.9463 5.5691-7 11.4574-7s10.7471 3.0537 11.4574 7z" fill="url(#a)" fill-rule="evenodd"/></svg>