<svg width="872" height="310" viewBox="0 0 872 310" fill="none" xmlns="http://www.w3.org/2000/svg">
<ellipse cx="106.331" cy="20.2991" rx="180.134" ry="176.684" fill="#F23D16"/>
<ellipse cx="293.199" cy="250.83" rx="134.68" ry="134.616" fill="#3D7FFF"/>
<ellipse cx="84.4455" cy="227.272" rx="134.68" ry="134.616" fill="#3D17D2"/>
<ellipse cx="84.4455" cy="227.272" rx="134.68" ry="134.616" fill="#3D17D2"/>
<ellipse cx="84.4455" cy="227.272" rx="134.68" ry="134.616" fill="#3D17D2"/>
<ellipse cx="84.4455" cy="227.272" rx="134.68" ry="134.616" fill="#3D17D2"/>
<ellipse cx="84.4455" cy="227.272" rx="134.68" ry="134.616" fill="#3D17D2"/>
<ellipse cx="84.4455" cy="227.272" rx="134.68" ry="134.616" fill="#3D17D2"/>
<ellipse cx="84.4455" cy="227.272" rx="134.68" ry="134.616" fill="#3D17D2"/>
<ellipse cx="426" cy="72.5" rx="190.5" ry="188.5" fill="#17D235"/>
<ellipse cx="340.337" cy="-15.0378" rx="104.377" ry="104.328" fill="#FFAD0D"/>
<ellipse cx="214.32" cy="128.792" rx="55.8195" ry="55.7918" fill="#098D66"/>
<ellipse cx="306.413" cy="251.227" rx="29.9926" ry="29.9777" fill="#FFD2D2"/>
<ellipse cx="608.422" cy="52.6244" rx="113.722" ry="113.665" fill="#FF0DBB"/>
<ellipse cx="586.127" cy="284.484" rx="84.1747" ry="84.1352" fill="#7D2DFF"/>
<ellipse cx="40.6747" cy="294.58" rx="84.1747" ry="84.1353" fill="#7D2DFF"/>
<ellipse cx="437.979" cy="314.773" rx="43.7709" ry="43.7503" fill="#FFD600"/>
<ellipse cx="390.523" cy="45.6736" rx="69.0233" ry="70.6736" fill="#FFD600"/>
<ellipse cx="905.887" cy="291.555" rx="136.838" ry="134.091" transform="rotate(-165 905.887 291.555)" fill="#F23D16"/>
<ellipse cx="814.053" cy="85.8204" rx="102.309" ry="102.164" transform="rotate(-165 814.053 85.8204)" fill="#3D7FFF"/>
<ellipse cx="962.6" cy="144.133" rx="102.308" ry="102.164" transform="rotate(-165 962.6 144.133)" fill="#3D17D2"/>
<ellipse cx="962.6" cy="144.133" rx="102.308" ry="102.164" transform="rotate(-165 962.6 144.133)" fill="#3D17D2"/>
<ellipse cx="962.6" cy="144.133" rx="102.308" ry="102.164" transform="rotate(-165 962.6 144.133)" fill="#3D17D2"/>
<ellipse cx="962.6" cy="144.133" rx="102.308" ry="102.164" transform="rotate(-165 962.6 144.133)" fill="#3D17D2"/>
<ellipse cx="962.6" cy="144.133" rx="102.308" ry="102.164" transform="rotate(-165 962.6 144.133)" fill="#3D17D2"/>
<ellipse cx="962.6" cy="144.133" rx="102.308" ry="102.164" transform="rotate(-165 962.6 144.133)" fill="#3D17D2"/>
<ellipse cx="962.6" cy="144.133" rx="102.308" ry="102.164" transform="rotate(-165 962.6 144.133)" fill="#3D17D2"/>
<ellipse cx="807.545" cy="359.864" rx="54.4277" ry="54.3494" transform="rotate(-165 807.545 359.864)" fill="#FFA572"/>
<ellipse cx="658.229" cy="168.716" rx="166.646" ry="165.214" transform="rotate(-165 658.229 168.716)" fill="#A0E135"/>
<ellipse cx="727.242" cy="271.451" rx="79.2891" ry="79.1773" transform="rotate(-165 727.242 271.451)" fill="#FFAD0D"/>
<ellipse cx="786.936" cy="241.154" rx="42.403" ry="42.342" transform="rotate(-165 786.936 241.154)" fill="#098D66"/>
<ellipse cx="804.434" cy="82.9312" rx="22.7837" ry="22.7509" transform="rotate(-165 804.434 82.9312)" fill="#FFD2D2"/>
<ellipse cx="543.822" cy="169.142" rx="86.3881" ry="86.2639" transform="rotate(-165 543.822 169.142)" fill="#FF0DBB"/>
<ellipse cx="605.724" cy="3.55692" rx="63.9428" ry="63.8526" transform="rotate(-165 605.724 3.55692)" fill="#7D2DFF"/>
<ellipse cx="720.378" cy="10.4804" rx="33.2503" ry="33.2034" transform="rotate(-165 720.378 10.4804)" fill="#FFD600"/>
<ellipse cx="669.564" cy="195.18" rx="52.4331" ry="53.6362" transform="rotate(-165 669.564 195.18)" fill="#FFD600"/>
</svg>
