<svg fill="none" height="32" viewBox="0 0 141 32" width="141" xmlns="http://www.w3.org/2000/svg"><g clip-rule="evenodd" fill-rule="evenodd"><path d="m34.4242 0-34.4242 19.9434v7.9777l6.88466 3.9887 34.42424-19.9436v-7.97771z" fill="#0096ff"/><path d="m6.8849 0-6.8849 3.98849v7.97771l6.0242 3.4899 13.7698-7.97727z" fill="#25c764"/><path d="m21.515 24.4311 12.9091 7.4788 6.8847-3.989v-7.9772l-6.0242-3.4901z" fill="#25c764"/><path d="m55.4483 9.13198c0 .72872.673 1.13352 1.9643 1.16072 2.6092.0812 5.7569.6209 5.7833 4.2919.0271 2.1597-1.5871 4.4814-5.8104 4.4814-1.9638 0-3.9814-.3778-6.2413-2.2678l1.6679-2.7533c1.6413 1.3496 3.2283 1.6465 4.6272 1.6737 1.1301.0268 2.0176-.432 1.9909-1.134 0-.6208-.4576-1.1333-2.2602-1.1872-2.4745-.1084-5.5684-1.134-5.5684-4.26542 0-3.02325 2.8518-4.29236 5.7302-4.29236 2.0447 0 3.6855.51294 5.0841 1.72764l-1.91 2.42962c-.9955-.70199-1.9365-.97147-3.1475-.97147-1.2642 0-1.9101.45853-1.9101 1.10657zm20.5546-1.72768c1.1838-1.8088 2.4479-2.51078 4.4117-2.51078 2.7709 0 5.2996 1.40421 5.2996 6.37088v7.2886h-3.901v-7.2075c0-1.67365-.4569-2.78046-2.0173-2.78046-1.5335 0-2.4481 1.32235-2.4481 2.83446v7.1535h-3.8199v-7.1535c0-1.75486-.6991-2.91561-2.2869-2.91561-1.5332 0-2.3941 1.43095-2.3941 2.94231v3.1813 3.9455h-3.8739v-3.9455-9.38984h3.3896.4843v1.20108c.8632-1.18843 2.2405-1.49801 3.2821-1.49801 1.4524 0 3.013.53967 3.8739 2.48357zm31.7211-2.15946v1.44145c.888-1.2419 2.099-1.76559 3.578-1.76559 1.265 0 2.314.37809 3.255 1.2147l-1.614 3.07719c-.646-.45853-1.318-.67478-2.125-.67478-1.668 0-3.094 1.08007-3.094 3.07739v6.9378h-3.874v-13.30816h3.605zm13.587 8.31426c0 1.4035.78 1.7815 1.506 1.7815.458 0 1.184-.1078 1.614-.3241l.888 3.2397c-.968.3781-1.749.5397-2.798.5937-2.878.1351-5.057-1.1333-5.057-5.2908v-5.02136h-2.367v-3.23902h2.367v-1.48275l3.874-2.24273v3.72548h3.363v3.23902h-3.39zm-30.4555-1.6738c0 2.2134 1.56 3.5093 3.4972 3.5093 2.1786 0 3.5237-1.7005 3.5237-3.3742 0-1.9166-1.2105-3.67149-3.5237-3.67149-1.9372 0-3.4972 1.32282-3.4972 3.53639zm7.0209-5.12893v-1.53883h.1346 3.632v13.33556h-3.4973-.2693v-1.6044c-.907 1.3483-2.7669 1.8749-4.0352 1.9011-3.9811.0272-6.8595-2.5642-6.8595-6.9645 0-4.42694 3.0397-7.0184 6.9671-6.96445 1.6679 0 3.2285.64756 3.9276 1.83552zm37.4306 4.97843 4.755 6.8183h-4.627l-2.438-3.4962-2.431 3.4962h-4.653l4.761-6.8279-4.519-6.48039h4.626l2.206 3.16347 2.207-3.16347h4.626zm-78.4639 11.3788-1.3653 1.7248h-.177l-1.3204-1.7372v3.1004h-.9861v-4.4386h1.1311l1.2894 1.7058 1.2955-1.7058h1.1185v4.4386h-.9857zm5.8701 1.4455.7642-1.8004.7586 1.8004zm-.3732.8753h2.2687l.3223.7612h1.0681l-1.9843-4.4392h-1.0742l-1.9843 4.4392h1.0614zm10.4386-3.6529-1.7949 2.1313 1.953 2.2256v.0571h-1.1883l-1.6369-1.8958v1.8958h-.9858v-4.4393h.9858v1.8333l1.4728-1.8333h1.1943zm3.2593 4.414h3.3685v-.9131h-2.4015v-.8941h2.1804v-.8689h-2.1804v-.8559h2.3133v-.907h-3.2803zm10.9596-4.439h.9795v4.439h-.9795zm4.237.8817h1.3464v3.5573h.9793v-3.5573h1.3462v-.8817h-3.6719zm13.5315.19c-.247-.2602-.677-.3738-1.024-.3738-.436 0-.79.1838-.79.4881 0 .4058.385.4815.954.5325.872.0764 1.7.412 1.7 1.4396 0 .9893-.91 1.4204-1.864 1.4266-.765.0067-1.561-.2914-1.934-.913l.588-.6151c.341.4373.903.628 1.352.628.524 0 .885-.2098.885-.5265.006-.3745-.291-.5454-.891-.5958-.935-.0893-1.769-.3234-1.757-1.3701.007-.8812.841-1.351 1.751-1.351.682 0 1.194.1526 1.649.6851zm5.154-1.0717h-.979v4.439h.979zm7.492 1.3571-1.365 1.7248h-.177l-1.321-1.7372v3.1004h-.986v-4.4386h1.131l1.29 1.7058 1.295-1.7058h1.118v4.4386h-.985zm6.717.9193h-1.1v-1.3377h1.1c.468 0 .708.3168.708.6722 0 .3549-.234.6655-.708.6655zm-1.1 2.1627v-1.2557h1.1c1.125-.0124 1.694-.7042 1.694-1.5916 0-.8559-.563-1.5918-1.694-1.5918h-2.086v4.4391zm7.077-4.4391v3.532h2.211v.907h-3.197v-4.439zm5.464 4.439h3.369v-.9131h-2.402v-.8941h2.18v-.8689h-2.18v-.8559h2.313v-.907h-3.28z" fill="#212934"/></g></svg>