<svg fill="none" height="72" viewBox="0 0 88 72" width="88" xmlns="http://www.w3.org/2000/svg" xmlns:xlink="http://www.w3.org/1999/xlink"><radialGradient id="a" cx="0" cy="0" gradientTransform="matrix(64.00007156 -70.99999459 70.6191747 63.65679688 11.8 71)" gradientUnits="userSpaceOnUse" r="1"><stop offset="0" stop-color="#14e775"/><stop offset="1" stop-color="#1dca77"/></radialGradient><path d="m43.8 71c17.5567 0 32-14.4636 32-32.0448 0-6.7818-2.1504-13.1136-5.8094-18.2884l2.5356-2.5391c.8666-.8679 1.316-1.8321 1.316-2.8928 0-2.0891-1.6369-3.7283-3.7232-3.7283-1.2517 0-2.1183.3535-3.017 1.1892l-2.2789 2.2177c-4.7181-4.1462-10.6239-6.94247-17.1394-7.746v-3.27841c0-2.1856-1.7332-3.88909-3.8837-3.88909-2.0862 0-3.8836 1.70349-3.8836 3.88909v3.27841c-15.7593 1.92847-28.1164 15.5242-28.1164 31.7877 0 17.5812 14.4434 32.0448 32 32.0448zm0-26.2594c-3.1775 0-5.7131-2.5713-5.7131-5.7533 0-2.0249 1.0592-3.7284 2.9208-4.8854v-13.9815c0-1.5749 1.2196-2.7963 2.7923-2.7963 1.5728 0 2.7924 1.2214 2.7924 2.7963v14.0136c1.8616 1.0928 2.9208 2.7963 2.9208 4.8533 0 3.2141-2.5356 5.7533-5.7132 5.7533z" fill="url(#a)"/></svg>