<svg width="72" height="72" viewBox="0 0 72 72" fill="none" xmlns="http://www.w3.org/2000/svg">
<path d="M36 71C53.5567 71 68 56.5364 68 38.9552C68 32.1734 65.8495 25.8416 62.1906 20.6668L64.7262 18.1277C65.5928 17.2598 66.0421 16.2956 66.0421 15.2349C66.0421 13.1458 64.4052 11.5066 62.319 11.5066C61.0672 11.5066 60.2006 11.8601 59.3019 12.6958L57.0231 14.9135C52.3049 10.7673 46.3992 7.97103 39.8837 7.1675V3.88909C39.8837 1.70349 38.1505 0 36 0C33.9137 0 32.1164 1.70349 32.1164 3.88909V7.1675C16.3571 9.09597 4 22.6917 4 38.9552C4 56.5364 18.4433 71 36 71ZM36 44.7406C32.8225 44.7406 30.2869 42.1693 30.2869 38.9873C30.2869 36.9624 31.346 35.2589 33.2076 34.1019V20.1204C33.2076 18.5455 34.4273 17.3241 36 17.3241C37.5727 17.3241 38.7924 18.5455 38.7924 20.1204V34.134C40.654 35.2268 41.7131 36.9303 41.7131 38.9873C41.7131 42.2014 39.1775 44.7406 36 44.7406Z" fill="url(#paint0_radial)"/>
<defs>
<radialGradient id="paint0_radial" cx="0" cy="0" r="1" gradientUnits="userSpaceOnUse" gradientTransform="translate(4 71) rotate(-47.9682) scale(95.5877 95.075)">
<stop stop-color="#14E775"/>
<stop offset="1" stop-color="#1DCA77"/>
</radialGradient>
</defs>
</svg>
