<svg fill="none" height="72" viewBox="0 0 72 72" width="72" xmlns="http://www.w3.org/2000/svg" xmlns:xlink="http://www.w3.org/1999/xlink"><radialGradient id="a" cx="0" cy="0" gradientTransform="matrix(58.56991982 -71.99989254 70.49238783 57.34360647 7 71.9999)" gradientUnits="userSpaceOnUse" r="1"><stop offset="0" stop-color="#ffd505"/><stop offset="1" stop-color="#f39600"/></radialGradient><path clip-rule="evenodd" d="m16.326 0h39.171v6.34246h10.0729v13.24354c0 6.6953-4.9683 12.2301-11.4192 13.1189-2.5292 6.4463-8.3771 11.2261-15.4409 12.2366v13.9315c.7745.1698 1.5343.4101 2.2699.7191 1.6068.6749 3.0667 1.6642 4.2965 2.9113s2.2053 2.7276 2.8708 4.357c.6656 1.6294 1.0081 3.3758 1.0081 5.1395h-26.487c0-1.7637.3426-3.5101 1.0081-5.1395.6656-1.6294 1.6411-3.1099 2.8708-4.357 1.2298-1.2471 2.6898-2.2364 4.2966-2.9113.6172-.2593 1.2515-.4702 1.8973-.6317v-14.0758c-6.9456-1.1306-12.6648-5.9144-15.1211-12.315-6.0574-1.2173-10.6198-6.5677-10.6198-12.9836v-13.24354h9.326zm39.0805 27.4491c3.6693-.7368 6.4331-3.9775 6.4331-7.8636v-8.0208h-6.3426v13.9897c0 .6392-.0306 1.2712-.0905 1.8947zm-39.0805-1.8947c0 .5732.0246 1.1407.0729 1.7014-3.2821-1.0052-5.6687-4.0591-5.6687-7.6703v-8.0208h5.5958z" fill="url(#a)" fill-rule="evenodd"/></svg>